<svg xmlns="http://www.w3.org/2000/svg" viewBox="0 0 360.64 307.08" fill="#fff"><defs><style>.cls-5,.cls-7{font-size:10px;font-family:ArialMT,Arial}.cls-7{fill:#959595}text{fill:#000}</style></defs><path d="M215.23 144.23V34.11q-3.48 0-7 .24z" fill="#ffa356"/><path d="M215.23 144.23l-6.88-109.88a105.41 105.41 0 00-27.23 5.16z" fill="#f96282"/><path d="M215.23 144.23L181.05 39.51A111.47 111.47 0 00156.42 51a108.88 108.88 0 00-21.7 17.85z" fill="#9f4e9d"/><path d="M215.23 144.23L134.88 69a109.55 109.55 0 00-29.77 75.26 107.53 107.53 0 003.94 29.23 111.31 111.31 0 0011.1 26.25A109.44 109.44 0 00159.59 239a112.24 112.24 0 0026.33 11.07 111.41 111.41 0 0058.66 0 111.06 111.06 0 0048.72-28.19 108.76 108.76 0 0017.29-22.21 110.57 110.57 0 0011.13-26.25 110.24 110.24 0 000-58.49 110.52 110.52 0 00-77.14-76.92 108.9 108.9 0 00-29.35-3.94z" fill="#00458b"/><text class="cls-5" transform="translate(328.31 285.96)"><tspan letter-spacing="-.01em">男孩子</tspan></text><text class="cls-7" transform="translate(332.13 303.83)">87.1%</text><text class="cls-7" transform="translate(337.85 22.8)">1.1%</text><text class="cls-7" transform="translate(51.85 28.55)">3.6%</text><text class="cls-7" transform="translate(0 49.43)">8.2%</text><text class="cls-5" transform="translate(51.85 10.46)">拒绝回答</text><text class="cls-5" transform="translate(0 34.34)">女孩子</text><text class="cls-5" transform="translate(315.2 8.58)">都不适合</text><path d="M239.71 290.77l-13.45-32.54m13.45-244.91l-29.84 18.84m144.64 258.3h-115.4M354.53 13.39h-115.4m-72.41 2.19l29.84 18.84m-80.99 5.32l29.84 18.84M51.66 15.66h115.4M.53 39.83h115.4" fill="none" stroke="#000"/></svg>