<svg xmlns="http://www.w3.org/2000/svg" viewBox="0 0 354.24 134.82"><defs><style>.cls-1{fill:#f2f2f2}.cls-2{font-size:10px;font-family:ArialMT,Arial}.cls-6{fill:#fff}.cls-16{fill:#00458b}.cls-17{fill:none;stroke:#fff}</style></defs><path class="cls-1" d="M0 .04h354.24v27H0z"/><text class="cls-2" transform="translate(4.5 17.48)">全栈（前端和后端）</text><path class="cls-6" d="M0 27.04h354.24v27H0z"/><text class="cls-2" transform="translate(4.5 44.48)">前端（基本上是 JavaScript）</text><path class="cls-6" d="M0 80.72h354.24v27H0z"/><text class="cls-2" transform="translate(4.5 98.15)">后端</text><path class="cls-1" d="M0 54.04h354.24v27H0z"/><text class="cls-2" transform="translate(4.5 71.48)">前端（基本上是 HTML 和 CSS</text><path class="cls-1" d="M0 107.68h354.24v27H0z"/><text class="cls-2" transform="translate(4.5 125.11)">其他类型</text><text class="cls-2" transform="translate(225.6 44.28)">43.1%</text><text class="cls-2" transform="translate(221.04 71.44)">33.3%</text><text class="cls-2" transform="translate(193.92 125.25)">3.4%</text><text class="cls-2" transform="translate(237.12 17.44)">57.1%</text><text class="cls-2" transform="translate(200.76 98.44)">11.7%</text><path class="cls-16" d="M183.26.5h44.46v26h-44.46z"/><path class="cls-17" d="M183.26.5h44.46v26h-44.46z"/><path class="cls-16" d="M183.26 27.34h33.32v26h-33.32z"/><path class="cls-17" d="M183.26 27.34h33.32v26h-33.32z"/><path class="cls-16" d="M183.26 54.5h25.51v26h-25.51z"/><path class="cls-17" d="M183.26 54.5h25.51v26h-25.51z"/><path class="cls-16" d="M183.26 81.5h8.32v26h-8.32z"/><path class="cls-17" d="M183.26 81.5h8.32v26h-8.32z"/><path class="cls-16" d="M183.26 108.32h1.71v26h-1.71z"/><path class="cls-17" d="M183.26 108.32h1.71v26h-1.71z"/></svg>