<svg xmlns="http://www.w3.org/2000/svg" viewBox="0 0 361.59 305.49" fill="#fff"><defs><style>.cls-6,.cls-9{font-size:10px;font-family:ArialMT,Arial}.cls-9{fill:#959595}text{fill:#000}</style></defs><path d="M215.29 143.88V33.72A111.12 111.12 0 00178.6 40a108.11 108.11 0 00-33.52 19z" fill="#fff44f"/><path d="M215.29 143.88L145.08 59a111.19 111.19 0 00-31.86 43.54 112 112 0 00-7.13 26.66 107.29 107.29 0 00-.12 28.54z" fill="#ffa356"/><path d="M215.29 143.88L106 157.69a108 108 0 006.1 24.77 110.46 110.46 0 0047.32 56.39 109.6 109.6 0 0049 15z" fill="#f96282"/><path d="M215.29 143.88l-6.95 109.94a105.65 105.65 0 0026.77-1.55 111.58 111.58 0 0025-7.79A110.71 110.71 0 00301.07 213a111.56 111.56 0 0014-22.41 106.8 106.8 0 008.41-26z" fill="#9f4e9d"/><path d="M215.29 143.88l108.24 20.68a97.82 97.82 0 001.47-10.18q.47-5.17.46-10.5a108.31 108.31 0 00-3.93-29.27 110.39 110.39 0 00-76.95-77 108.44 108.44 0 00-29.28-3.93z" fill="#00458b"/><text class="cls-6" transform="translate(316.82 284.37)">10 年以上</text><text class="cls-9" transform="translate(331.63 302.24)">23.4%</text><text class="cls-9" transform="translate(329.97 22.8)">28.1%</text><text class="cls-9" transform="translate(51.55 28.55)">10.6%</text><text class="cls-9" transform="translate(0 100.36)">15.6%</text><text class="cls-9" transform="translate(0 266.44)">22.2%</text><text class="cls-6" transform="translate(51.55 10.46)">少于 1 年</text><text class="cls-6" transform="translate(0 248.35)">1 到 2 年</text><text class="cls-6" transform="translate(0 82.15)">6 到 9 年</text><text class="cls-6" transform="translate(315.61 8.58)">3 到 5 年</text><path d="M79.07 252.93l60.22-22.26m101.5 58.64l-3.99-32.94m2.43-243.13l-11.36 16.4m128.09 259.23h-115.4M354.23 13.39h-115.4m-72.41 2.19l29.84 18.84M78.72 86.74l32.45 20.4M51.36 15.66h115.4M.49 86.82h78.85M.49 252.9h78.85" fill="none" stroke="#000"/></svg>