<svg xmlns="http://www.w3.org/2000/svg" viewBox="0 0 401.92 492.87"><defs><style>.cls-1{fill:#ff5c6a}.cls-2{font-size:10px;font-family:ArialMT,Arial}.cls-3{fill:#ff6875}.cls-4{fill:#ff4f5e}.cls-5{fill:#ff5564}.cls-6{fill:#ff6e7b}.cls-7{fill:#ff7581}.cls-8{fill:#ff7b86}.cls-9{fill:#ff818c}.cls-10{fill:#ff8892}.cls-11{fill:#ff8e98}.cls-12{fill:#ff949d}.cls-13{fill:#ff9ba3}.cls-14{fill:#ffa1a9}.cls-15{fill:#ffa7af}.cls-16{fill:#ffadb5}.cls-17{fill:#ffb4ba}.cls-18{fill:#ffbac0}.cls-19{letter-spacing:-.02em}.cls-20{fill:#ffc1c6}.cls-21{fill:#ffc7cb}.cls-22{fill:#ffcdd1}.cls-23{fill:#ffd3d7}.cls-24{fill:#ffdadd}.cls-25{fill:#ffe0e3}.cls-26{fill:#ffe6e8}.cls-27{fill:#ffecee}.cls-28{fill:#fff3f4}.cls-29{fill:#fff9fa}.cls-30{fill:#fff}.cls-31{font-size:11px;font-family:Arial-BoldMT,Arial;font-weight:700}.cls-35{letter-spacing:0}</style></defs><g id="Layer_2" data-name="Layer 2"><g id="Layer_1-2" data-name="Layer 1"><path class="cls-1" d="M77.98 67.87h46.7v17h-46.7z"/><text class="cls-2" transform="translate(98.89 80.3)">3</text><path class="cls-3" d="M22.6 67.87h46.7v17H22.6z"/><text class="cls-2" transform="translate(43.25 80.3)">4</text><path class="cls-4" d="M0 16.87h13.5v17H0z"/><text class="cls-2" transform="translate(4.83 29.3)">1</text><path class="cls-5" d="M0 33.87h13.5v17H0z"/><text class="cls-2" transform="translate(4.18 46.3)">2</text><path class="cls-1" d="M0 50.87h13.5v17H0z"/><text class="cls-2" transform="translate(4.31 63.3)">3</text><path class="cls-3" d="M0 67.87h13.5v17H0z"/><text class="cls-2" transform="translate(4.06 80.3)">4</text><path class="cls-6" d="M0 84.87h13.5v17H0z"/><text class="cls-2" transform="translate(4.19 97.3)">5</text><path class="cls-7" d="M0 101.87h13.5v17H0z"/><text class="cls-2" transform="translate(4.1 114.3)">6</text><path class="cls-8" d="M0 118.87h13.5v17H0z"/><text class="cls-2" transform="translate(4.4 131.3)">7</text><path class="cls-9" d="M0 135.87h13.5v17H0z"/><text class="cls-2" transform="translate(4.06 148.3)">8</text><path class="cls-10" d="M0 152.87h13.5v17H0z"/><text class="cls-2" transform="translate(4.1 165.3)">9</text><path class="cls-11" d="M0 169.87h13.5v17H0z"/><text class="cls-2" transform="translate(1.95 182.3)">10</text><path class="cls-12" d="M0 186.87h13.5v17H0z"/><text class="cls-2" transform="translate(2.9 199.3)">11</text><path class="cls-13" d="M0 203.87h13.5v17H0z"/><text class="cls-2" transform="translate(2.25 216.3)">12</text><path class="cls-14" d="M0 220.87h13.5v17H0z"/><text class="cls-2" transform="translate(2.38 233.3)">13</text><path class="cls-15" d="M0 237.87h13.5v17H0z"/><text class="cls-2" transform="translate(2.13 250.3)">14</text><path class="cls-16" d="M0 254.87h13.5v17H0z"/><text class="cls-2" transform="translate(2.27 267.3)">15</text><path class="cls-17" d="M0 271.87h13.5v17H0z"/><text class="cls-2" transform="translate(2.17 284.3)">16</text><path class="cls-18" d="M0 288.87h13.5v17H0z"/><text class="cls-2" transform="translate(2.56 301.3)"><tspan class="cls-19">1</tspan> <tspan x="5.39" y="0">7</tspan></text><path class="cls-20" d="M0 305.87h13.5v17H0z"/><text class="cls-2" transform="translate(2.14 318.3)">18</text><path class="cls-21" d="M0 322.87h13.5v17H0z"/><text class="cls-2" transform="translate(2.17 335.3)">19</text><path class="cls-22" d="M0 339.87h13.5v17H0z"/><text class="cls-2" transform="translate(1.3 352.3)">20</text><path class="cls-23" d="M0 356.87h13.5v17H0z"/><text class="cls-2" transform="translate(2.25 369.3)">21</text><path class="cls-24" d="M0 373.87h13.5v17H0z"/><text class="cls-2" transform="translate(1.6 386.3)">22</text><path class="cls-25" d="M0 390.87h13.5v17H0z"/><text class="cls-2" transform="translate(1.73 403.3)">23</text><path class="cls-26" d="M0 407.87h13.5v17H0z"/><text class="cls-2" transform="translate(1.48 420.3)">24</text><path class="cls-27" d="M0 424.87h13.5v17H0z"/><text class="cls-2" transform="translate(1.62 437.3)">25</text><path class="cls-28" d="M0 441.87h13.5v17H0z"/><text class="cls-2" transform="translate(1.52 454.3)">26</text><path class="cls-29" d="M0 458.87h13.5v17H0z"/><text class="cls-2" transform="translate(1.82 471.3)">27</text><path class="cls-30" d="M0 475.87h13.5v17H0z"/><text class="cls-2" transform="translate(1.49 488.3)">28</text><path class="cls-11" d="M299.92 152.87h46.7v17h-46.7z"/><text class="cls-2" transform="translate(318.46 165.31)">10</text><path class="cls-12" d="M299.92 237.87h46.7v17h-46.7z"/><text class="cls-2" transform="translate(319.42 250.3)">11</text><path class="cls-13" d="M299.92 186.87h46.7v17h-46.7z"/><text class="cls-2" transform="translate(318.77 199.3)">12</text><path class="cls-14" d="M299.92 203.87h46.7v17h-46.7z"/><text class="cls-2" transform="translate(318.9 216.3)">13</text><path class="cls-15" d="M299.92 169.87h46.7v17h-46.7z"/><text class="cls-2" transform="translate(318.65 182.3)">14</text><path class="cls-16" d="M299.92 322.87h46.7v17h-46.7z"/><text class="cls-2" transform="translate(318.78 335.3)">15</text><path class="cls-17" d="M299.92 373.87h46.7v17h-46.7z"/><text class="cls-2" transform="translate(318.69 386.3)">16</text><path class="cls-18" d="M299.92 288.86h46.7v17h-46.7z"/><text class="cls-2" transform="translate(319.07 301.3)"><tspan class="cls-19">1</tspan> <tspan x="5.39" y="0">7</tspan></text><path class="cls-20" d="M299.92 271.87h46.7v17h-46.7z"/><text class="cls-2" transform="translate(318.65 284.3)">18</text><path class="cls-21" d="M299.92 254.87h46.7v17h-46.7z"/><text class="cls-2" transform="translate(318.69 267.3)">19</text><path class="cls-22" d="M299.92 390.87h46.7v17h-46.7z"/><text class="cls-2" transform="translate(317.81 403.3)">20</text><path class="cls-23" d="M299.92 424.87h46.7v17h-46.7z"/><text class="cls-2" transform="translate(318.77 437.3)">21</text><path class="cls-24" d="M299.92 407.87h46.7v17h-46.7z"/><text class="cls-2" transform="translate(318.12 420.3)">22</text><path class="cls-25" d="M299.92 339.87h46.7v17h-46.7z"/><text class="cls-2" transform="translate(318.25 352.3)">23</text><path class="cls-26" d="M299.92 441.86h46.7v17h-46.7z"/><text class="cls-2" transform="translate(318 454.3)">24</text><path class="cls-27" d="M299.92 220.87h46.7v17h-46.7z"/><text class="cls-2" transform="translate(318.13 233.3)">25</text><path class="cls-28" d="M299.92 356.87h46.7v17h-46.7z"/><text class="cls-2" transform="translate(318.04 369.3)">26</text><path class="cls-29" d="M299.92 458.87h46.7v17h-46.7z"/><text class="cls-2" transform="translate(318.34 471.31)">27</text><path class="cls-30" d="M299.92 475.87h46.7v17h-46.7z"/><text class="cls-2" transform="translate(318 488.3)">28</text><path class="cls-4" d="M299.92 16.87h46.7v17h-46.7z"/><text class="cls-2" transform="translate(321.34 29.3)">1</text><path class="cls-5" d="M299.92 67.87h46.7v17h-46.7z"/><text class="cls-2" transform="translate(320.69 80.3)">2</text><path class="cls-1" d="M299.92 50.87h46.7v17h-46.7z"/><text class="cls-2" transform="translate(320.82 63.3)">3</text><path class="cls-3" d="M299.92 84.87h46.7v17h-46.7z"/><text class="cls-2" transform="translate(320.57 97.3)">4</text><path class="cls-6" d="M299.92 33.87h46.7v17h-46.7z"/><text class="cls-2" transform="translate(320.71 46.3)">5</text><path class="cls-7" d="M299.92 118.87h46.7v17h-46.7z"/><text class="cls-2" transform="translate(320.61 131.3)">6</text><path class="cls-8" d="M299.92 101.87h46.7v17h-46.7z"/><text class="cls-2" transform="translate(320.91 114.3)">7</text><path class="cls-9" d="M299.92 305.87h46.7v17h-46.7z"/><text class="cls-2" transform="translate(320.58 318.31)">8</text><path class="cls-10" d="M299.92 135.86h46.7v17h-46.7z"/><text class="cls-2" transform="translate(320.61 148.3)">9</text><text class="cls-31" transform="translate(307.93 9.6)">Russia</text><path class="cls-4" d="M355.22 16.87h46.7v17h-46.7z"/><text class="cls-2" transform="translate(376.65 29.3)">1</text><path class="cls-5" d="M355.22 33.87h46.7v17h-46.7z"/><text class="cls-2" transform="translate(376 46.3)">2</text><path class="cls-1" d="M355.22 50.87h46.7v17h-46.7z"/><text class="cls-2" transform="translate(376.13 63.3)">3</text><path class="cls-3" d="M355.22 67.87h46.7v17h-46.7z"/><text class="cls-2" transform="translate(375.88 80.3)">4</text><path class="cls-7" d="M355.22 135.86h46.7v17h-46.7z"/><text class="cls-2" transform="translate(375.92 148.3)">6</text><path class="cls-8" d="M355.22 84.87h46.7v17h-46.7z"/><text class="cls-2" transform="translate(376.22 97.3)">7</text><text class="cls-31" transform="translate(369.6 9.44)"><tspan letter-spacing="-.03em">U</tspan> <tspan x="7.65" y="0">.S.</tspan></text><path class="cls-6" d="M355.22 101.87h46.7v17h-46.7z"/><text class="cls-2" transform="translate(376.01 114.3)">5</text><path class="cls-9" d="M355.22 118.87h46.7v17h-46.7z"/><text class="cls-2" transform="translate(375.88 131.3)">8</text><path class="cls-10" d="M355.22 169.87h46.7v17h-46.7z"/><text class="cls-2" transform="translate(375.92 182.3)">9</text><path class="cls-11" d="M355.22 203.87h46.7v17h-46.7z"/><text class="cls-2" transform="translate(373.77 216.3)">10</text><path class="cls-12" d="M355.22 186.87h46.7v17h-46.7z"/><text class="cls-2" transform="translate(374.72 199.3)">11</text><path class="cls-13" d="M355.22 220.87h46.7v17h-46.7z"/><text class="cls-2" transform="translate(374.07 233.3)">12</text><path class="cls-14" d="M355.22 152.87h46.7v17h-46.7z"/><text class="cls-2" transform="translate(374.2 165.31)">13</text><path class="cls-15" d="M355.22 271.87h46.7v17h-46.7z"/><text class="cls-2" transform="translate(373.95 284.3)">14</text><path class="cls-16" d="M355.22 356.87h46.7v17h-46.7z"/><text class="cls-2" transform="translate(374.09 369.3)">15</text><path class="cls-17" d="M355.22 339.87h46.7v17h-46.7z"/><text class="cls-2" transform="translate(373.99 352.3)">16</text><path class="cls-18" d="M355.22 407.87h46.7v17h-46.7z"/><text class="cls-2" transform="translate(374.38 420.3)"><tspan class="cls-19">1</tspan> <tspan x="5.39" y="0">7</tspan></text><path class="cls-20" d="M355.22 288.86h46.7v17h-46.7z"/><text class="cls-2" transform="translate(373.96 301.3)">18</text><path class="cls-21" d="M355.22 254.87h46.7v17h-46.7z"/><text class="cls-2" transform="translate(373.99 267.3)">19</text><path class="cls-22" d="M355.22 373.87h46.7v17h-46.7z"/><text class="cls-2" transform="translate(373.12 386.3)">20</text><path class="cls-23" d="M355.22 322.87h46.7v17h-46.7z"/><text class="cls-2" transform="translate(374.07 335.3)">21</text><path class="cls-24" d="M355.22 390.87h46.7v17h-46.7z"/><text class="cls-2" transform="translate(373.42 403.3)">22</text><path class="cls-25" d="M355.22 237.87h46.7v17h-46.7z"/><text class="cls-2" transform="translate(373.55 250.3)">23</text><path class="cls-26" d="M355.22 441.86h46.7v17h-46.7z"/><text class="cls-2" transform="translate(373.3 454.3)">24</text><path class="cls-27" d="M355.22 305.87h46.7v17h-46.7z"/><text class="cls-2" transform="translate(373.44 318.31)">25</text><path class="cls-28" d="M355.22 424.87h46.7v17h-46.7z"/><text class="cls-2" transform="translate(373.34 437.3)">26</text><path class="cls-29" d="M355.22 458.87h46.7v17h-46.7z"/><text class="cls-2" transform="translate(373.64 471.31)">27</text><path class="cls-30" d="M355.22 475.87h46.7v17h-46.7z"/><text class="cls-2" transform="translate(373.31 488.3)">28</text><path class="cls-7" d="M77.98 84.87h46.7v17h-46.7z"/><text class="cls-2" transform="translate(98.68 97.3)">6</text><path class="cls-10" d="M77.98 101.87h46.7v17h-46.7z"/><text class="cls-2" transform="translate(98.68 114.3)">9</text><path class="cls-11" d="M77.98 135.86h46.7v17h-46.7z"/><text class="cls-2" transform="translate(96.53 148.3)">10</text><path class="cls-4" d="M77.98 16.87h46.7v17h-46.7z"/><text class="cls-2" transform="translate(99.41 29.3)">1</text><path class="cls-5" d="M77.98 33.87h46.7v17h-46.7z"/><text class="cls-2" transform="translate(98.76 46.3)">2</text><path class="cls-3" d="M77.98 50.87h46.7v17h-46.7z"/><text class="cls-2" transform="translate(98.64 63.3)">4</text><path class="cls-8" d="M77.98 118.87h46.7v17h-46.7z"/><text class="cls-2" transform="translate(98.98 131.3)">7</text><text class="cls-31" transform="translate(87.84 9.6)">China</text><path class="cls-6" d="M77.98 237.87h46.7v17h-46.7z"/><text class="cls-2" transform="translate(98.77 250.3)">5</text><path class="cls-9" d="M77.98 254.87h46.7v17h-46.7z"/><text class="cls-2" transform="translate(98.64 267.3)">8</text><path class="cls-12" d="M77.98 203.87h46.7v17h-46.7z"/><text class="cls-2" transform="translate(97.48 216.3)">11</text><path class="cls-13" d="M77.98 220.87h46.7v17h-46.7z"/><text class="cls-2" transform="translate(96.83 233.3)">12</text><path class="cls-14" d="M77.98 186.87h46.7v17h-46.7z"/><text class="cls-2" transform="translate(96.96 199.3)">13</text><path class="cls-15" d="M77.98 390.87h46.7v17h-46.7z"/><text class="cls-2" transform="translate(96.71 403.3)">14</text><path class="cls-16" d="M77.98 322.87h46.7v17h-46.7z"/><text class="cls-2" transform="translate(96.85 335.3)">15</text><path class="cls-17" d="M77.98 169.87h46.7v17h-46.7z"/><text class="cls-2" transform="translate(96.75 182.3)">16</text><path class="cls-18" d="M77.98 305.87h46.7v17h-46.7z"/><text class="cls-2" transform="translate(97.14 318.31)"><tspan class="cls-19">1</tspan> <tspan x="5.39" y="0">7</tspan></text><path class="cls-20" d="M77.98 424.87h46.7v17h-46.7z"/><text class="cls-2" transform="translate(96.72 437.3)">18</text><path class="cls-21" d="M77.98 373.87h46.7v17h-46.7z"/><text class="cls-2" transform="translate(96.75 386.3)">19</text><path class="cls-22" d="M77.98 339.87h46.7v17h-46.7z"/><text class="cls-2" transform="translate(95.88 352.3)">20</text><path class="cls-23" d="M77.98 271.87h46.7v17h-46.7z"/><text class="cls-2" transform="translate(96.83 284.3)">21</text><path class="cls-24" d="M77.98 356.87h46.7v17h-46.7z"/><text class="cls-2" transform="translate(96.18 369.3)">22</text><path class="cls-25" d="M77.98 152.87h46.7v17h-46.7z"/><text class="cls-2" transform="translate(96.31 165.31)">23</text><path class="cls-26" d="M77.98 288.86h46.7v17h-46.7z"/><text class="cls-2" transform="translate(96.06 301.3)">24</text><path class="cls-27" d="M77.98 441.86h46.7v17h-46.7z"/><text class="cls-2" transform="translate(96.2 454.3)">25</text><path class="cls-28" d="M77.98 475.87h46.7v17h-46.7z"/><text class="cls-2" transform="translate(96.1 488.3)">26</text><path class="cls-29" d="M77.98 458.87h46.7v17h-46.7z"/><text class="cls-2" transform="translate(96.4 471.31)">27</text><path class="cls-30" d="M77.98 407.87h46.7v17h-46.7z"/><text class="cls-2" transform="translate(96.07 420.3)">28</text><path class="cls-9" d="M22.6 135.86h46.7v17H22.6z"/><text class="cls-2" transform="translate(43.26 148.3)">8</text><path class="cls-16" d="M22.6 203.87h46.7v17H22.6z"/><text class="cls-2" transform="translate(41.46 216.3)">15</text><path class="cls-17" d="M22.6 254.87h46.7v17H22.6z"/><text class="cls-2" transform="translate(41.37 267.3)">16</text><path class="cls-23" d="M22.6 424.87h46.7v17H22.6z"/><text class="cls-2" transform="translate(41.45 437.3)">21</text><path class="cls-25" d="M22.6 357.03h46.7v17H22.6z"/><text class="cls-2" transform="translate(40.93 369.47)">23</text><path class="cls-10" d="M22.6 152.87h46.7v17H22.6z"/><text class="cls-2" transform="translate(43.29 165.31)">9</text><path class="cls-15" d="M22.6 169.87h46.7v17H22.6z"/><text class="cls-2" transform="translate(41.33 182.3)">14</text><path class="cls-18" d="M22.6 186.87h46.7v17H22.6z"/><text class="cls-2" transform="translate(41.75 199.3)"><tspan class="cls-19">1</tspan> <tspan x="5.39" y="0">7</tspan></text><path class="cls-21" d="M22.6 288.86h46.7v17H22.6z"/><text class="cls-2" transform="translate(41.37 301.3)">19</text><path class="cls-22" d="M22.6 339.87h46.7v17H22.6z"/><text class="cls-2" transform="translate(40.49 352.3)">20</text><path class="cls-24" d="M22.6 322.87h46.7v17H22.6z"/><text class="cls-2" transform="translate(40.8 335.3)">22</text><path class="cls-26" d="M22.6 407.87h46.7v17H22.6z"/><text class="cls-2" transform="translate(40.68 420.3)">24</text><path class="cls-27" d="M22.6 373.87h46.7v17H22.6z"/><text class="cls-2" transform="translate(40.81 386.3)">25</text><path class="cls-28" d="M22.6 390.87h46.7v17H22.6z"/><text class="cls-2" transform="translate(40.72 403.3)">26</text><path class="cls-29" d="M22.6 458.87h46.7v17H22.6z"/><text class="cls-2" transform="translate(41.02 471.31)">27</text><path class="cls-30" d="M22.6 475.87h46.7v17H22.6z"/><text class="cls-2" transform="translate(40.68 488.3)">28</text><path class="cls-12" d="M22.6 220.87h46.7v17H22.6z"/><text class="cls-2" transform="translate(42.1 233.3)">11</text><path class="cls-11" d="M22.6 237.87h46.7v17H22.6z"/><text class="cls-2" transform="translate(41.14 250.3)">10</text><path class="cls-14" d="M22.6 271.87h46.7v17H22.6z"/><text class="cls-2" transform="translate(41.58 284.3)">13</text><path class="cls-13" d="M22.6 305.87h46.7v17H22.6z"/><text class="cls-2" transform="translate(41.45 318.31)">12</text><path class="cls-20" d="M22.6 441.86h46.7v17H22.6z"/><text class="cls-2" transform="translate(41.33 454.3)">18</text><path class="cls-5" d="M22.6 50.87h46.7v17H22.6z"/><text class="cls-2" transform="translate(43.37 63.3)">2</text><path class="cls-1" d="M22.6 33.87h46.7v17H22.6z"/><text class="cls-2" transform="translate(43.5 46.3)">3</text><path class="cls-7" d="M22.6 101.87h46.7v17H22.6z"/><text class="cls-2" transform="translate(43.29 114.3)">6</text><path class="cls-4" d="M22.6 16.87h46.7v17H22.6z"/><text class="cls-2" transform="translate(44.02 29.3)">1</text><path class="cls-6" d="M22.6 84.87h46.7v17H22.6z"/><text class="cls-2" transform="translate(43.39 97.3)">5</text><path class="cls-8" d="M22.6 118.87h46.7v17H22.6z"/><text class="cls-2" transform="translate(43.59 131.3)">7</text><path class="cls-25" d="M22.6 356.87h46.7v17H22.6z"/><text class="cls-2" transform="translate(40.93 369.3)">23</text><path class="cls-30" d="M22.6.94h46.7v15.92H22.6z"/><text class="cls-31" transform="translate(32.62 9.6)"><tspan letter-spacing="0">B</tspan> <tspan x="7.89" y="0">razil</tspan></text><path class="cls-11" d="M133.59 220.87h46.7v17h-46.7z"/><text class="cls-2" transform="translate(152.14 233.3)">10</text><path class="cls-12" d="M133.59 186.87h46.7v17h-46.7z"/><text class="cls-2" transform="translate(153.09 199.3)">11</text><path class="cls-14" d="M133.59 237.87h46.7v17h-46.7z"/><text class="cls-2" transform="translate(152.57 250.3)">13</text><path class="cls-15" d="M133.59 203.87h46.7v17h-46.7z"/><text class="cls-2" transform="translate(152.32 216.3)">14</text><path class="cls-16" d="M133.59 288.86h46.7v17h-46.7z"/><text class="cls-2" transform="translate(152.46 301.3)">15</text><path class="cls-17" d="M133.59 339.87h46.7v17h-46.7z"/><text class="cls-2" transform="translate(152.36 352.3)">16</text><path class="cls-18" d="M133.59 169.87h46.7v17h-46.7z"/><text class="cls-2" transform="translate(152.75 182.3)"><tspan class="cls-19">1</tspan> <tspan x="5.39" y="0">7</tspan></text><path class="cls-20" d="M133.59 271.87h46.7v17h-46.7z"/><text class="cls-2" transform="translate(152.33 284.3)">18</text><path class="cls-21" d="M133.59 305.87h46.7v17h-46.7z"/><text class="cls-2" transform="translate(152.36 318.31)">19</text><path class="cls-22" d="M133.59 322.87h46.7v17h-46.7z"/><text class="cls-2" transform="translate(151.49 335.3)">20</text><path class="cls-23" d="M133.59 407.87h46.7v17h-46.7z"/><text class="cls-2" transform="translate(152.44 420.3)">21</text><path class="cls-24" d="M133.59 424.87h46.7v17h-46.7z"/><text class="cls-2" transform="translate(151.79 437.3)">22</text><path class="cls-25" d="M133.59 356.87h46.7v17h-46.7z"/><text class="cls-2" transform="translate(151.92 369.3)">23</text><path class="cls-26" d="M133.59 390.87h46.7v17h-46.7z"/><text class="cls-2" transform="translate(151.67 403.3)">24</text><path class="cls-27" d="M133.59 373.87h46.7v17h-46.7z"/><text class="cls-2" transform="translate(151.81 386.3)">25</text><path class="cls-28" d="M133.59 441.86h46.7v17h-46.7z"/><text class="cls-2" transform="translate(151.71 454.3)">26</text><path class="cls-29" d="M133.59 458.87h46.7v17h-46.7z"/><text class="cls-2" transform="translate(152.01 471.31)">27</text><path class="cls-30" d="M133.59 475.87h46.7v17h-46.7z"/><text class="cls-2" transform="translate(151.68 488.3)">28</text><path class="cls-10" d="M133.59 254.87h46.7v17h-46.7z"/><text class="cls-2" transform="translate(154.29 267.3)">9</text><text class="cls-31" transform="translate(141.41 9.6)">France</text><path class="cls-4" d="M133.59 16.87h46.7v17h-46.7zM133.59 34.03h46.7v17h-46.7zM133.59 102.03h46.7v17h-46.7z"/><path class="cls-4" d="M133.59 16.87h46.7v17h-46.7z"/><text class="cls-2" transform="translate(155.02 29.3)">1</text><path class="cls-5" d="M133.59 33.87h46.7v17h-46.7z"/><text class="cls-2" transform="translate(154.37 46.3)">2</text><path class="cls-1" d="M133.59 67.87h46.7v17h-46.7z"/><text class="cls-2" transform="translate(154.5 80.3)">3</text><path class="cls-3" d="M133.59 84.87h46.7v17h-46.7z"/><text class="cls-2" transform="translate(154.25 97.3)">4</text><path class="cls-6" d="M133.59 50.87h46.7v17h-46.7z"/><text class="cls-2" transform="translate(154.38 63.3)">5</text><path class="cls-7" d="M133.59 101.87h46.7v17h-46.7z"/><text class="cls-2" transform="translate(154.29 114.3)">6</text><path class="cls-8" d="M133.59 118.87h46.7v17h-46.7z"/><text class="cls-2" transform="translate(154.59 131.3)">7</text><path class="cls-9" d="M133.59 152.87h46.7v17h-46.7z"/><text class="cls-2" transform="translate(154.25 165.31)">8</text><path class="cls-13" d="M133.59 135.86h46.7v17h-46.7z"/><text class="cls-2" transform="translate(152.44 148.3)">12</text><path class="cls-4" d="M188.22 16.87h46.7v17h-46.7z"/><text class="cls-2" transform="translate(209.64 29.3)">1</text><path class="cls-5" d="M188.22 33.87h46.7v17h-46.7z"/><text class="cls-2" transform="translate(208.99 46.3)">2</text><path class="cls-1" d="M188.22 84.87h46.7v17h-46.7z"/><text class="cls-2" transform="translate(209.12 97.3)">3</text><path class="cls-3" d="M188.22 50.87h46.7v17h-46.7z"/><text class="cls-2" transform="translate(208.87 63.3)">4</text><path class="cls-6" d="M188.22 135.86h46.7v17h-46.7z"/><text class="cls-2" transform="translate(209.01 148.3)">5</text><path class="cls-7" d="M188.22 67.87h46.7v17h-46.7z"/><text class="cls-2" transform="translate(208.91 80.3)">6</text><path class="cls-8" d="M188.22 118.87h46.7v17h-46.7z"/><text class="cls-2" transform="translate(209.21 131.3)">7</text><path class="cls-9" d="M188.22 101.87h46.7v17h-46.7z"/><text class="cls-2" transform="translate(208.88 114.3)">8</text><path class="cls-10" d="M188.22 237.87h46.7v17h-46.7z"/><text class="cls-2" transform="translate(208.91 250.3)">9</text><path class="cls-11" d="M188.22 305.87h46.7v17h-46.7z"/><text class="cls-2" transform="translate(206.76 318.31)">10</text><text transform="translate(199.79 9.6)" letter-spacing="-.02em" font-size="11" font-family="Arial-BoldMT,Arial" font-weight="700">I<tspan class="cls-35" x="2.85" y="0">ndia</tspan></text><path class="cls-12" d="M188.22 220.87h46.7v17h-46.7z"/><text class="cls-2" transform="translate(207.72 233.3)">11</text><path class="cls-13" d="M188.22 169.87h46.7v17h-46.7z"/><text class="cls-2" transform="translate(207.07 182.3)">12</text><path class="cls-14" d="M188.22 152.87h46.7v17h-46.7z"/><text class="cls-2" transform="translate(207.2 165.31)">13</text><path class="cls-15" d="M188.22 203.87h46.7v17h-46.7z"/><text class="cls-2" transform="translate(206.95 216.3)">14</text><path class="cls-16" d="M188.22 186.87h46.7v17h-46.7z"/><text class="cls-2" transform="translate(207.08 199.3)">15</text><path class="cls-17" d="M188.22 288.86h46.7v17h-46.7z"/><text class="cls-2" transform="translate(206.99 301.3)">16</text><path class="cls-18" d="M188.22 390.87h46.7v17h-46.7z"/><text class="cls-2" transform="translate(207.37 403.3)"><tspan class="cls-19">1</tspan> <tspan x="5.39" y="0">7</tspan></text><path class="cls-20" d="M188.22 254.87h46.7v17h-46.7z"/><text class="cls-2" transform="translate(206.95 267.3)">18</text><path class="cls-21" d="M188.22 271.87h46.7v17h-46.7z"/><text class="cls-2" transform="translate(206.99 284.3)">19</text><path class="cls-22" d="M188.22 373.87h46.7v17h-46.7z"/><text class="cls-2" transform="translate(206.11 386.3)">20</text><path class="cls-23" d="M188.22 356.87h46.7v17h-46.7z"/><text class="cls-2" transform="translate(207.07 369.3)">21</text><path class="cls-24" d="M188.22 441.86h46.7v17h-46.7z"/><text class="cls-2" transform="translate(206.42 454.3)">22</text><path class="cls-25" d="M188.22 424.87h46.7v17h-46.7z"/><text class="cls-2" transform="translate(206.55 437.3)">23</text><path class="cls-26" d="M188.22 339.87h46.7v17h-46.7z"/><text class="cls-2" transform="translate(206.3 352.3)">24</text><path class="cls-27" d="M188.22 322.87h46.7v17h-46.7z"/><text class="cls-2" transform="translate(206.43 335.3)">25</text><path class="cls-28" d="M188.22 407.87h46.7v17h-46.7z"/><text class="cls-2" transform="translate(206.34 420.3)">26</text><path class="cls-29" d="M188.22 458.87h46.7v17h-46.7z"/><text class="cls-2" transform="translate(206.64 471.31)">27</text><path class="cls-30" d="M188.22 475.87h46.7v17h-46.7z"/><text class="cls-2" transform="translate(206.3 488.3)">28</text><path class="cls-8" d="M244.61 254.87h46.7v17h-46.7z"/><text class="cls-2" transform="translate(265.61 267.3)">7</text><path class="cls-12" d="M244.61 186.87h46.7v17h-46.7z"/><text class="cls-2" transform="translate(264.11 199.3)">11</text><path class="cls-13" d="M244.61 169.87h46.7v17h-46.7z"/><text class="cls-2" transform="translate(263.46 182.3)">12</text><path class="cls-14" d="M244.61 271.87h46.7v17h-46.7z"/><text class="cls-2" transform="translate(263.59 284.3)">13</text><path class="cls-15" d="M244.61 288.86h46.7v17h-46.7z"/><text class="cls-2" transform="translate(263.34 301.3)">14</text><path class="cls-16" d="M244.61 339.87h46.7v17h-46.7z"/><text class="cls-2" transform="translate(263.48 352.3)">15</text><path class="cls-18" d="M244.61 238.03h46.7v17h-46.7z"/><text class="cls-2" transform="translate(263.77 250.46)"><tspan class="cls-19">1</tspan> <tspan x="5.39" y="0">7</tspan></text><path class="cls-20" d="M244.61 203.87h46.7v17h-46.7z"/><text class="cls-2" transform="translate(263.35 216.3)">18</text><path class="cls-21" d="M244.61 322.87h46.7v17h-46.7z"/><text class="cls-2" transform="translate(263.38 335.3)">19</text><path class="cls-22" d="M244.61 305.87h46.7v17h-46.7z"/><text class="cls-2" transform="translate(262.51 318.31)">20</text><path class="cls-23" d="M244.61 373.87h46.7v17h-46.7z"/><text class="cls-2" transform="translate(263.46 386.3)">21</text><path class="cls-24" d="M244.61 356.87h46.7v17h-46.7z"/><text class="cls-2" transform="translate(262.81 369.3)">22</text><path class="cls-25" d="M244.61 390.87h46.7v17h-46.7z"/><text class="cls-2" transform="translate(262.94 403.3)">23</text><path class="cls-26" d="M244.61 424.87h46.7v17h-46.7z"/><text class="cls-2" transform="translate(262.69 437.3)">24</text><path class="cls-27" d="M244.61 407.87h46.7v17h-46.7z"/><text class="cls-2" transform="translate(262.83 420.3)">25</text><path class="cls-28" d="M244.61 441.86h46.7v17h-46.7z"/><text class="cls-2" transform="translate(262.73 454.3)">26</text><path class="cls-29" d="M244.61 458.87h46.7v17h-46.7z"/><text class="cls-2" transform="translate(263.03 471.31)">27</text><path class="cls-30" d="M244.61 475.87h46.7v17h-46.7z"/><text class="cls-2" transform="translate(262.7 488.3)">28</text><text transform="translate(254.08 9.6)" letter-spacing="-.02em" font-size="11" font-family="Arial-BoldMT,Arial" font-weight="700">J<tspan class="cls-35" x="5.86" y="0">apan</tspan></text><path class="cls-4" d="M244.61 153.03h46.7v17h-46.7zM244.61 221.03h46.7v17h-46.7zM244.61 238.03h46.7v17h-46.7zM244.61 16.87h46.7v17h-46.7z"/><text class="cls-2" transform="translate(266.04 29.3)">1</text><path class="cls-1" d="M244.61 33.87h46.7v17h-46.7z"/><text class="cls-2" transform="translate(265.52 46.3)">3</text><path class="cls-3" d="M244.61 50.87h46.7v17h-46.7z"/><text class="cls-2" transform="translate(265.27 63.3)">4</text><path class="cls-6" d="M244.61 84.87h46.7v17h-46.7z"/><text class="cls-2" transform="translate(265.4 97.3)">5</text><path class="cls-7" d="M244.61 118.87h46.7v17h-46.7z"/><text class="cls-2" transform="translate(265.31 131.3)">6</text><path class="cls-9" d="M244.61 101.87h46.7v17h-46.7z"/><text class="cls-2" transform="translate(265.27 114.3)">8</text><path class="cls-18" d="M244.61 237.87h46.7v17h-46.7z"/><text class="cls-2" transform="translate(263.77 250.3)"><tspan class="cls-19">1</tspan> <tspan x="5.39" y="0">7</tspan></text><path class="cls-10" d="M244.61 221.03h46.7v17h-46.7z"/><text class="cls-2" transform="translate(265.31 233.47)">9</text><path class="cls-10" d="M244.61 220.87h46.7v17h-46.7z"/><text class="cls-2" transform="translate(265.31 233.3)">9</text><path class="cls-11" d="M244.61 152.87h46.7v17h-46.7z"/><text class="cls-2" transform="translate(263.16 165.31)">10</text><path class="cls-17" d="M244.61 135.86h46.7v17h-46.7z"/><text class="cls-2" transform="translate(263.38 148.3)">16</text><path class="cls-5" d="M244.61 67.87h46.7v17h-46.7z"/><text class="cls-2" transform="translate(265.39 80.3)">2</text></g></g></svg>