<svg xmlns="http://www.w3.org/2000/svg" viewBox="0 0 124.86 492.71" fill="#fff"><defs><style>.cls-1{fill:#ff4f5e}.cls-2{font-size:10px;font-family:ArialMT,Arial}.cls-3{fill:#ff5564}.cls-4{fill:#ff5c6a}.cls-5{fill:#ff6875}.cls-6{fill:#ff6e7b}.cls-7{fill:#ff7581}.cls-8{fill:#ff7b86}.cls-9{fill:#ff818c}.cls-10{fill:#ff8892}.cls-11{fill:#ff8e98}.cls-12{fill:#ff949d}.cls-13{fill:#ff9ba3}.cls-14{fill:#ffa1a9}.cls-15{fill:#ffa7af}.cls-16{fill:#ffadb5}.cls-17{fill:#ffb4ba}.cls-18{fill:#ffbac0}.cls-19{letter-spacing:-.02em}.cls-20{fill:#ffc1c6}.cls-21{fill:#ffc7cb}.cls-22{fill:#ffcdd1}.cls-23{fill:#ffd3d7}.cls-24{fill:#ffdadd}.cls-25{fill:#ffe0e3}.cls-26{fill:#ffe6e8}.cls-27{fill:#ffecee}.cls-28{fill:#fff3f4}.cls-29{fill:#fff9fa}.cls-30{fill:#fff}text{fill:#000}</style></defs><path class="cls-1" d="M78.16 16.71h46.7v17h-46.7z"/><text class="cls-2" transform="translate(99.59 29.14)">1</text><path class="cls-3" d="M78.16 33.71h46.7v17h-46.7z"/><text class="cls-2" transform="translate(98.94 46.14)">2</text><path class="cls-4" d="M78.16 50.68h46.7v17h-46.7z"/><text class="cls-2" transform="translate(99.07 63.11)">3</text><path class="cls-5" d="M78.16 67.68h46.7v17h-46.7z"/><text class="cls-2" transform="translate(98.82 80.11)">4</text><path class="cls-6" d="M78.16 84.68h46.7v17h-46.7z"/><text class="cls-2" transform="translate(98.95 97.11)">5</text><path class="cls-7" d="M78.16 101.68h46.7v17h-46.7z"/><text class="cls-2" transform="translate(98.86 114.11)">6</text><path class="cls-8" d="M78.16 118.68h46.7v17h-46.7z"/><text class="cls-2" transform="translate(99.16 131.11)">7</text><path class="cls-9" d="M78.16 135.67h46.7v17h-46.7z"/><text class="cls-2" transform="translate(98.82 148.11)">8</text><path class="cls-10" d="M78.16 152.68h46.7v17h-46.7z"/><text class="cls-2" transform="translate(98.86 165.12)">9</text><path class="cls-11" d="M78.16 169.68h46.7v17h-46.7z"/><text class="cls-2" transform="translate(96.71 182.11)">10</text><path class="cls-12" d="M78.16 186.68h46.7v17h-46.7z"/><text class="cls-2" transform="translate(97.66 199.11)">11</text><path class="cls-13" d="M78.16 203.68h46.7v17h-46.7z"/><text class="cls-2" transform="translate(97.01 216.11)">12</text><path class="cls-14" d="M78.16 220.68h46.7v17h-46.7z"/><text class="cls-2" transform="translate(97.14 233.11)">13</text><path class="cls-15" d="M78.16 237.68h46.7v17h-46.7z"/><text class="cls-2" transform="translate(96.89 250.11)">14</text><path class="cls-16" d="M78.16 254.68h46.7v17h-46.7z"/><text class="cls-2" transform="translate(97.03 267.11)">15</text><path class="cls-17" d="M78.16 271.68h46.7v17h-46.7z"/><text class="cls-2" transform="translate(96.93 284.11)">16</text><path class="cls-18" d="M78.16 288.67h46.7v17h-46.7z"/><text class="cls-2" transform="translate(97.32 301.11)"><tspan class="cls-19">1</tspan> <tspan x="5.39" y="0">7</tspan></text><path class="cls-20" d="M78.16 305.68h46.7v17h-46.7z"/><text class="cls-2" transform="translate(96.9 318.12)">18</text><path class="cls-21" d="M78.16 322.68h46.7v17h-46.7z"/><text class="cls-2" transform="translate(96.93 335.11)">19</text><path class="cls-22" d="M78.16 339.68h46.7v17h-46.7z"/><text class="cls-2" transform="translate(96.06 352.11)">20</text><path class="cls-23" d="M78.16 356.68h46.7v17h-46.7z"/><text class="cls-2" transform="translate(97.01 369.11)">21</text><path class="cls-24" d="M78.16 373.68h46.7v17h-46.7z"/><text class="cls-2" transform="translate(96.36 386.11)">22</text><path class="cls-25" d="M78.16 390.68h46.7v17h-46.7z"/><text class="cls-2" transform="translate(96.49 403.11)">23</text><path class="cls-26" d="M78.16 407.68h46.7v17h-46.7z"/><text class="cls-2" transform="translate(96.24 420.11)">24</text><path class="cls-27" d="M78.16 424.68h46.7v17h-46.7z"/><text class="cls-2" transform="translate(96.38 437.11)">25</text><path class="cls-28" d="M78.16 441.67h46.7v17h-46.7z"/><text class="cls-2" transform="translate(96.28 454.11)">26</text><path class="cls-29" d="M78.16 458.68h46.7v17h-46.7z"/><text class="cls-2" transform="translate(96.58 471.12)">27</text><path class="cls-30" d="M78.16 475.68h46.7v17h-46.7z"/><text class="cls-2" transform="translate(96.25 488.11)">28</text><text transform="translate(84.23 10.31)" font-family="Arial-BoldMT,Arial" font-weight="700" font-size="12">男孩子</text><path class="cls-9" d="M22.48 84.67h46.7v17h-46.7z"/><text class="cls-2" transform="translate(43.14 97.11)">8</text><path class="cls-16" d="M22.48 254.59h46.7v17h-46.7z"/><text class="cls-2" transform="translate(41.35 267.03)">15</text><path class="cls-17" d="M22.48 220.59h46.7v17h-46.7z"/><text class="cls-2" transform="translate(41.25 233.03)">16</text><path class="cls-23" d="M22.48 424.67h46.7v17h-46.7z"/><text class="cls-2" transform="translate(41.33 437.11)">21</text><path class="cls-10" d="M22.48 169.68h46.7v17h-46.7z"/><text class="cls-2" transform="translate(43.18 182.11)">9</text><path class="cls-15" d="M22.48 152.68h46.7v17h-46.7z"/><text class="cls-2" transform="translate(41.21 165.11)">14</text><path class="cls-18" d="M22.48 271.67h46.7v17h-46.7z"/><text class="cls-2" transform="translate(41.64 284.11)"><tspan class="cls-19">1</tspan> <tspan x="5.39" y="0">7</tspan></text><path class="cls-21" d="M22.48 305.68h46.7v17h-46.7z"/><text class="cls-2" transform="translate(41.25 318.11)">19</text><path class="cls-22" d="M22.48 288.67h46.7v17h-46.7z"/><text class="cls-2" transform="translate(40.38 301.11)">20</text><path class="cls-24" d="M22.48 356.68h46.7v17h-46.7z"/><text class="cls-2" transform="translate(40.68 369.11)">22</text><path class="cls-26" d="M22.48 441.67h46.7v17h-46.7z"/><text class="cls-2" transform="translate(40.56 454.11)">24</text><path class="cls-27" d="M22.48 322.68h46.7v17h-46.7z"/><text class="cls-2" transform="translate(40.7 335.11)">25</text><path class="cls-28" d="M22.48 407.67h46.7v17h-46.7z"/><text class="cls-2" transform="translate(40.6 420.11)">26</text><path class="cls-29" d="M22.48 458.68h46.7v17h-46.7z"/><text class="cls-2" transform="translate(40.9 471.11)">27</text><path class="cls-30" d="M22.48 475.68h46.7v17h-46.7z"/><text class="cls-2" transform="translate(40.57 488.11)">28</text><path class="cls-12" d="M22.48 186.68h46.7v17h-46.7z"/><text class="cls-2" transform="translate(41.98 199.11)">11</text><path class="cls-11" d="M22.48 203.68h46.7v17h-46.7z"/><text class="cls-2" transform="translate(41.03 216.11)">10</text><path class="cls-14" d="M22.48 390.67h46.7v17h-46.7z"/><text class="cls-2" transform="translate(41.46 403.11)">13</text><path class="cls-13" d="M22.48 237.59h46.7v17h-46.7z"/><text class="cls-2" transform="translate(41.33 250.03)">12</text><path class="cls-20" d="M22.48 373.68h46.7v17h-46.7z"/><text class="cls-2" transform="translate(41.22 386.11)">18</text><path class="cls-3" d="M22.48 33.7h46.7v17h-46.7z"/><text class="cls-2" transform="translate(43.26 46.14)">2</text><path class="cls-4" d="M22.48 50.68h46.7v17h-46.7z"/><text class="cls-2" transform="translate(43.39 63.11)">3</text><path class="cls-7" d="M22.48 67.68h46.7v17h-46.7z"/><text class="cls-2" transform="translate(43.18 80.11)">6</text><path class="cls-1" d="M22.48 16.71h46.7v17h-46.7z"/><text class="cls-2" transform="translate(43.91 29.14)">1</text><path class="cls-6" d="M22.48 118.67h46.7v17h-46.7z"/><text class="cls-2" transform="translate(43.27 131.11)">5</text><path class="cls-8" d="M22.48 135.67h46.7v17h-46.7z"/><text class="cls-2" transform="translate(43.48 148.11)">7</text><path class="cls-25" d="M22.48 339.68h46.7v17h-46.7z"/><text class="cls-2" transform="translate(40.81 352.11)">23</text><path class="cls-30" d="M22.48.78h46.7V16.7h-46.7z"/><text transform="translate(29.49 9.44)" font-size="11" font-family="Arial-BoldMT,Arial" font-weight="700">女孩子</text><path class="cls-5" d="M22.48 101.67h46.7v17h-46.7z"/><text class="cls-2" transform="translate(43.14 114.11)">4</text><path class="cls-1" d="M0 16.71h13.5v17H0z"/><text class="cls-2" transform="translate(4.83 29.14)">1</text><path class="cls-3" d="M0 33.71h13.5v17H0z"/><text class="cls-2" transform="translate(4.18 46.14)">2</text><path class="cls-4" d="M0 50.71h13.5v17H0z"/><text class="cls-2" transform="translate(4.31 63.14)">3</text><path class="cls-5" d="M0 67.71h13.5v17H0z"/><text class="cls-2" transform="translate(4.06 80.14)">4</text><path class="cls-6" d="M0 84.71h13.5v17H0z"/><text class="cls-2" transform="translate(4.19 97.14)">5</text><path class="cls-7" d="M0 101.71h13.5v17H0z"/><text class="cls-2" transform="translate(4.1 114.14)">6</text><path class="cls-8" d="M0 118.71h13.5v17H0z"/><text class="cls-2" transform="translate(4.4 131.14)">7</text><path class="cls-9" d="M0 135.71h13.5v17H0z"/><text class="cls-2" transform="translate(4.06 148.14)">8</text><path class="cls-10" d="M0 152.71h13.5v17H0z"/><text class="cls-2" transform="translate(4.1 165.14)">9</text><path class="cls-11" d="M0 169.71h13.5v17H0z"/><text class="cls-2" transform="translate(1.95 182.14)">10</text><path class="cls-12" d="M0 186.71h13.5v17H0z"/><text class="cls-2" transform="translate(2.9 199.14)">11</text><path class="cls-13" d="M0 203.71h13.5v17H0z"/><text class="cls-2" transform="translate(2.25 216.14)">12</text><path class="cls-14" d="M0 220.71h13.5v17H0z"/><text class="cls-2" transform="translate(2.38 233.14)">13</text><path class="cls-15" d="M0 237.71h13.5v17H0z"/><text class="cls-2" transform="translate(2.13 250.14)">14</text><path class="cls-16" d="M0 254.71h13.5v17H0z"/><text class="cls-2" transform="translate(2.27 267.14)">15</text><path class="cls-17" d="M0 271.71h13.5v17H0z"/><text class="cls-2" transform="translate(2.17 284.14)">16</text><path class="cls-18" d="M0 288.71h13.5v17H0z"/><text class="cls-2" transform="translate(2.56 301.14)"><tspan class="cls-19">1</tspan> <tspan x="5.39" y="0">7</tspan></text><path class="cls-20" d="M0 305.71h13.5v17H0z"/><text class="cls-2" transform="translate(2.14 318.14)">18</text><path class="cls-21" d="M0 322.71h13.5v17H0z"/><text class="cls-2" transform="translate(2.17 335.14)">19</text><path class="cls-22" d="M0 339.71h13.5v17H0z"/><text class="cls-2" transform="translate(1.3 352.14)">20</text><path class="cls-23" d="M0 356.71h13.5v17H0z"/><text class="cls-2" transform="translate(2.25 369.14)">21</text><path class="cls-24" d="M0 373.71h13.5v17H0z"/><text class="cls-2" transform="translate(1.6 386.14)">22</text><path class="cls-25" d="M0 390.71h13.5v17H0z"/><text class="cls-2" transform="translate(1.73 403.14)">23</text><path class="cls-26" d="M0 407.71h13.5v17H0z"/><text class="cls-2" transform="translate(1.48 420.14)">24</text><path class="cls-27" d="M0 424.71h13.5v17H0z"/><text class="cls-2" transform="translate(1.62 437.14)">25</text><path class="cls-28" d="M0 441.71h13.5v17H0z"/><text class="cls-2" transform="translate(1.52 454.14)">26</text><path class="cls-29" d="M0 458.71h13.5v17H0z"/><text class="cls-2" transform="translate(1.82 471.14)">27</text><path class="cls-30" d="M0 475.71h13.5v17H0z"/><text class="cls-2" transform="translate(1.49 488.14)">28</text></svg>