<svg xmlns="http://www.w3.org/2000/svg" viewBox="0 0 136.39 492.63"><defs><style>.cls-1{fill:#ff4f5e}.cls-2{font-size:10px;font-family:ArialMT,Arial}.cls-3{fill:#ff5564}.cls-4{fill:#ff5c6a}.cls-5{fill:#ff6875}.cls-6{fill:#ff6e7b}.cls-7{fill:#ff7581}.cls-8{fill:#ff7b86}.cls-9{fill:#ff818c}.cls-10{fill:#ff8892}.cls-11{fill:#ff8e98}.cls-12{fill:#ff949d}.cls-13{fill:#ff9ba3}.cls-14{fill:#ffa1a9}.cls-15{fill:#ffa7af}.cls-16{fill:#ffadb5}.cls-17{fill:#ffb4ba}.cls-18{fill:#ffbac0}.cls-19{letter-spacing:-.02em}.cls-20{fill:#ffc1c6}.cls-21{fill:#ffc7cb}.cls-22{fill:#ffcdd1}.cls-23{fill:#ffd3d7}.cls-24{fill:#ffdadd}.cls-25{fill:#ffe0e3}.cls-26{fill:#ffe6e8}.cls-27{fill:#ffecee}.cls-28{fill:#fff3f4}.cls-29{fill:#fff9fa}.cls-30{fill:#fff}.cls-31{font-size:11px;font-family:Arial-BoldMT,Arial;font-weight:700}</style></defs><g id="Layer_2" data-name="Layer 2"><g id="Layer_1-2" data-name="Layer 1"><path class="cls-1" d="M22.6 16.63h46.7v17H22.6z"/><text class="cls-2" transform="translate(44.02 29.06)">1</text><path class="cls-3" d="M22.6 33.62h46.7v17H22.6z"/><text class="cls-2" transform="translate(43.37 46.06)">2</text><path class="cls-4" d="M22.6 50.7h46.7v17H22.6z"/><text class="cls-2" transform="translate(43.5 63.14)">3</text><path class="cls-4" d="M22.6 50.59h46.7v17H22.6z"/><text class="cls-2" transform="translate(43.5 63.03)">3</text><path class="cls-5" d="M22.6 67.62h46.7v17H22.6z"/><text class="cls-2" transform="translate(43.25 80.06)">4</text><path class="cls-5" d="M22.6 67.51h46.7v17H22.6z"/><text class="cls-2" transform="translate(43.25 79.95)">4</text><path class="cls-6" d="M22.6 84.62h46.7v17H22.6z"/><text class="cls-2" transform="translate(43.39 97.06)">5</text><path class="cls-6" d="M22.6 84.51h46.7v17H22.6z"/><text class="cls-2" transform="translate(43.39 96.95)">5</text><path class="cls-7" d="M22.6 101.62h46.7v17H22.6z"/><text class="cls-2" transform="translate(43.29 114.06)">6</text><path class="cls-7" d="M22.6 101.51h46.7v17H22.6z"/><text class="cls-2" transform="translate(43.29 113.95)">6</text><path class="cls-8" d="M22.6 118.62h46.7v17H22.6z"/><text class="cls-2" transform="translate(43.59 131.06)">7</text><path class="cls-8" d="M22.6 118.51h46.7v17H22.6z"/><text class="cls-2" transform="translate(43.59 130.95)">7</text><path class="cls-9" d="M22.6 135.62h46.7v17H22.6z"/><text class="cls-2" transform="translate(43.26 148.05)">8</text><path class="cls-9" d="M22.6 135.51h46.7v17H22.6z"/><text class="cls-2" transform="translate(43.26 147.95)">8</text><path class="cls-10" d="M22.6 152.63h46.7v17H22.6z"/><text class="cls-2" transform="translate(43.29 165.06)">9</text><path class="cls-10" d="M22.6 152.52h46.7v17H22.6z"/><text class="cls-2" transform="translate(43.29 164.95)">9</text><path class="cls-11" d="M22.6 169.63h46.7v17H22.6z"/><text class="cls-2" transform="translate(41.14 182.06)">10</text><path class="cls-11" d="M22.6 169.52h46.7v17H22.6z"/><text class="cls-2" transform="translate(41.14 181.95)">10</text><path class="cls-12" d="M22.6 203.62h46.7v17H22.6z"/><text class="cls-2" transform="translate(42.1 216.06)">11</text><path class="cls-12" d="M22.6 203.52h46.7v17H22.6z"/><text class="cls-2" transform="translate(42.1 215.95)">11</text><path class="cls-13" d="M22.6 186.62h46.7v17H22.6z"/><text class="cls-2" transform="translate(41.45 199.06)">12</text><path class="cls-13" d="M22.6 186.51h46.7v17H22.6z"/><text class="cls-2" transform="translate(41.45 198.95)">12</text><path class="cls-14" d="M22.6 220.62h46.7v17H22.6z"/><text class="cls-2" transform="translate(41.58 233.06)">13</text><path class="cls-14" d="M22.6 220.51h46.7v17H22.6z"/><text class="cls-2" transform="translate(41.58 232.95)">13</text><path class="cls-15" d="M22.6 237.62h46.7v17H22.6z"/><text class="cls-2" transform="translate(41.33 250.06)">14</text><path class="cls-15" d="M22.6 237.51h46.7v17H22.6z"/><text class="cls-2" transform="translate(41.33 249.95)">14</text><path class="cls-16" d="M22.6 254.62h46.7v17H22.6z"/><text class="cls-2" transform="translate(41.46 267.06)">15</text><path class="cls-16" d="M22.6 254.51h46.7v17H22.6z"/><text class="cls-2" transform="translate(41.46 266.95)">15</text><path class="cls-17" d="M22.6 271.62h46.7v17H22.6z"/><text class="cls-2" transform="translate(41.37 284.06)">16</text><path class="cls-17" d="M22.6 271.51h46.7v17H22.6z"/><text class="cls-2" transform="translate(41.37 283.95)">16</text><path class="cls-18" d="M22.6 305.63h46.7v17H22.6z"/><text class="cls-2" transform="translate(41.75 318.06)"><tspan class="cls-19">1</tspan> <tspan x="5.39" y="0">7</tspan></text><path class="cls-18" d="M22.6 305.52h46.7v17H22.6z"/><text class="cls-2" transform="translate(41.75 317.95)"><tspan class="cls-19">1</tspan> <tspan x="5.39" y="0">7</tspan></text><path class="cls-20" d="M22.6 288.62h46.7v17H22.6z"/><text class="cls-2" transform="translate(41.33 301.06)">18</text><path class="cls-20" d="M22.6 288.51h46.7v17H22.6z"/><text class="cls-2" transform="translate(41.33 300.95)">18</text><path class="cls-21" d="M22.6 339.62h46.7v17H22.6z"/><text class="cls-2" transform="translate(41.37 352.06)">19</text><path class="cls-21" d="M22.6 339.51h46.7v17H22.6z"/><text class="cls-2" transform="translate(41.37 351.95)">19</text><path class="cls-22" d="M22.6 356.62h46.7v17H22.6z"/><text class="cls-2" transform="translate(40.49 369.06)">20</text><path class="cls-22" d="M22.6 356.51h46.7v17H22.6z"/><text class="cls-2" transform="translate(40.49 368.95)">20</text><path class="cls-23" d="M22.6 322.71h46.7v17H22.6z"/><text class="cls-2" transform="translate(41.45 335.14)">21</text><path class="cls-23" d="M22.6 322.6h46.7v17H22.6z"/><text class="cls-2" transform="translate(41.45 335.03)">21</text><path class="cls-24" d="M22.6 390.62h46.7v17H22.6z"/><text class="cls-2" transform="translate(40.8 403.06)">22</text><path class="cls-24" d="M22.6 390.51h46.7v17H22.6z"/><text class="cls-2" transform="translate(40.8 402.95)">22</text><path class="cls-25" d="M22.6 373.62h46.7v17H22.6z"/><text class="cls-2" transform="translate(40.93 386.06)">23</text><path class="cls-25" d="M22.6 373.51h46.7v17H22.6z"/><text class="cls-2" transform="translate(40.93 385.95)">23</text><path class="cls-26" d="M22.6 424.62h46.7v17H22.6z"/><text class="cls-2" transform="translate(40.68 437.06)">24</text><path class="cls-26" d="M22.6 424.51h46.7v17H22.6z"/><text class="cls-2" transform="translate(40.68 436.95)">24</text><path class="cls-27" d="M22.6 407.7h46.7v17H22.6z"/><text class="cls-2" transform="translate(40.81 420.14)">25</text><path class="cls-27" d="M22.6 407.6h46.7v17H22.6z"/><text class="cls-2" transform="translate(40.81 420.03)">25</text><path class="cls-28" d="M22.6 441.62h46.7v17H22.6z"/><text class="cls-2" transform="translate(40.72 454.05)">26</text><path class="cls-28" d="M22.6 441.51h46.7v17H22.6z"/><text class="cls-2" transform="translate(40.72 453.95)">26</text><path class="cls-29" d="M22.6 458.63h46.7v17H22.6z"/><text class="cls-2" transform="translate(41.02 471.06)">27</text><path class="cls-29" d="M22.6 458.52h46.7v17H22.6z"/><text class="cls-2" transform="translate(41.02 470.95)">27</text><path class="cls-30" d="M22.6 475.63h46.7v17H22.6z"/><text class="cls-2" transform="translate(40.68 488.06)">28</text><path class="cls-30" d="M22.6 475.52h46.7v17H22.6z"/><text class="cls-2" transform="translate(40.68 487.95)">28</text><text class="cls-31" transform="translate(22.2 9.44)">Satisﬁed</text><path class="cls-9" d="M77.98 101.7h46.7v17h-46.7z"/><text class="cls-2" transform="translate(98.64 114.14)">8</text><path class="cls-9" d="M77.98 101.6h46.7v17h-46.7z"/><text class="cls-2" transform="translate(98.64 114.03)">8</text><path class="cls-16" d="M77.98 203.62h46.7v17h-46.7z"/><text class="cls-2" transform="translate(96.85 216.06)">15</text><path class="cls-16" d="M77.98 203.52h46.7v17h-46.7z"/><text class="cls-2" transform="translate(96.85 215.95)">15</text><path class="cls-17" d="M77.98 152.71h46.7v17h-46.7z"/><text class="cls-2" transform="translate(96.75 165.14)">16</text><path class="cls-17" d="M77.98 152.6h46.7v17h-46.7z"/><text class="cls-2" transform="translate(96.75 165.04)">16</text><path class="cls-23" d="M77.98 339.62h46.7v17h-46.7z"/><text class="cls-2" transform="translate(96.83 352.06)">21</text><path class="cls-23" d="M77.98 339.51h46.7v17h-46.7z"/><text class="cls-2" transform="translate(96.83 351.95)">21</text><path class="cls-10" d="M77.98 288.62h46.7v17h-46.7z"/><text class="cls-2" transform="translate(98.68 301.06)">9</text><path class="cls-10" d="M77.98 288.51h46.7v17h-46.7z"/><text class="cls-2" transform="translate(98.68 300.95)">9</text><path class="cls-15" d="M77.98 220.62h46.7v17h-46.7z"/><text class="cls-2" transform="translate(96.71 233.06)">14</text><path class="cls-15" d="M77.98 220.51h46.7v17h-46.7z"/><text class="cls-2" transform="translate(96.71 232.95)">14</text><path class="cls-18" d="M77.98 254.63h46.7v17h-46.7z"/><text class="cls-2" transform="translate(97.14 267.06)"><tspan class="cls-19">1</tspan> <tspan x="5.39" y="0">7</tspan></text><path class="cls-18" d="M77.98 254.52h46.7v17h-46.7z"/><text class="cls-2" transform="translate(97.14 266.95)"><tspan class="cls-19">1</tspan> <tspan x="5.39" y="0">7</tspan></text><path class="cls-21" d="M77.98 237.62h46.7v17h-46.7z"/><text class="cls-2" transform="translate(96.75 250.06)">19</text><path class="cls-21" d="M77.98 237.51h46.7v17h-46.7z"/><text class="cls-2" transform="translate(96.75 249.95)">19</text><path class="cls-22" d="M77.98 271.62h46.7v17h-46.7z"/><text class="cls-2" transform="translate(95.88 284.06)">20</text><path class="cls-22" d="M77.98 271.51h46.7v17h-46.7z"/><text class="cls-2" transform="translate(95.88 283.95)">20</text><path class="cls-24" d="M77.98 356.62h46.7v17h-46.7z"/><text class="cls-2" transform="translate(96.18 369.06)">22</text><path class="cls-24" d="M77.98 356.51h46.7v17h-46.7z"/><text class="cls-2" transform="translate(96.18 368.95)">22</text><path class="cls-26" d="M77.98 441.62h46.7v17h-46.7z"/><text class="cls-2" transform="translate(96.06 454.05)">24</text><path class="cls-26" d="M77.98 441.51h46.7v17h-46.7z"/><text class="cls-2" transform="translate(96.06 453.95)">24</text><path class="cls-27" d="M77.98 390.62h46.7v17h-46.7z"/><text class="cls-2" transform="translate(96.2 403.06)">25</text><path class="cls-27" d="M77.98 390.51h46.7v17h-46.7z"/><text class="cls-2" transform="translate(96.2 402.95)">25</text><path class="cls-28" d="M77.98 424.62h46.7v17h-46.7z"/><text class="cls-2" transform="translate(96.1 437.06)">26</text><path class="cls-28" d="M77.98 424.51h46.7v17h-46.7z"/><text class="cls-2" transform="translate(96.1 436.95)">26</text><path class="cls-29" d="M77.98 458.63h46.7v17h-46.7z"/><text class="cls-2" transform="translate(96.4 471.06)">27</text><path class="cls-29" d="M77.98 458.52h46.7v17h-46.7z"/><text class="cls-2" transform="translate(96.4 470.95)">27</text><path class="cls-30" d="M77.98 475.63h46.7v17h-46.7z"/><text class="cls-2" transform="translate(96.07 488.06)">28</text><path class="cls-30" d="M77.98 475.52h46.7v17h-46.7z"/><text class="cls-2" transform="translate(96.07 487.95)">28</text><path class="cls-12" d="M77.98 322.63h46.7v17h-46.7z"/><text class="cls-2" transform="translate(97.48 335.06)">11</text><path class="cls-12" d="M77.98 322.52h46.7v17h-46.7z"/><text class="cls-2" transform="translate(97.48 334.95)">11</text><path class="cls-11" d="M77.98 186.62h46.7v17h-46.7z"/><text class="cls-2" transform="translate(96.53 199.06)">10</text><path class="cls-11" d="M77.98 186.51h46.7v17h-46.7z"/><text class="cls-2" transform="translate(96.53 198.95)">10</text><path class="cls-14" d="M77.98 169.63h46.7v17h-46.7z"/><text class="cls-2" transform="translate(96.96 182.06)">13</text><path class="cls-14" d="M77.98 169.52h46.7v17h-46.7z"/><text class="cls-2" transform="translate(96.96 181.95)">13</text><path class="cls-13" d="M77.98 373.62h46.7v17h-46.7z"/><text class="cls-2" transform="translate(96.83 386.06)">12</text><path class="cls-13" d="M77.98 373.51h46.7v17h-46.7z"/><text class="cls-2" transform="translate(96.83 385.95)">12</text><path class="cls-20" d="M77.98 305.71h46.7v17h-46.7z"/><text class="cls-2" transform="translate(96.72 318.14)">18</text><path class="cls-20" d="M77.98 305.6h46.7v17h-46.7z"/><text class="cls-2" transform="translate(96.72 318.04)">18</text><path class="cls-3" d="M77.98 33.62h46.7v17h-46.7z"/><text class="cls-2" transform="translate(98.76 46.06)">2</text><path class="cls-4" d="M77.98 84.7h46.7v17h-46.7z"/><text class="cls-2" transform="translate(98.89 97.14)">3</text><path class="cls-4" d="M77.98 84.6h46.7v17h-46.7z"/><text class="cls-2" transform="translate(98.89 97.03)">3</text><path class="cls-7" d="M77.98 50.71h46.7v17h-46.7z"/><text class="cls-2" transform="translate(98.68 63.14)">6</text><path class="cls-7" d="M77.98 50.6h46.7v17h-46.7z"/><text class="cls-2" transform="translate(98.68 63.03)">6</text><path class="cls-1" d="M77.98 16.62h46.7v17h-46.7z"/><text class="cls-2" transform="translate(99.41 29.06)">1</text><path class="cls-6" d="M77.98 135.7h46.7v17h-46.7z"/><text class="cls-2" transform="translate(98.77 148.14)">5</text><path class="cls-6" d="M77.98 135.59h46.7v17h-46.7z"/><text class="cls-2" transform="translate(98.77 148.03)">5</text><path class="cls-8" d="M77.98 118.62h46.7v17h-46.7z"/><text class="cls-2" transform="translate(98.98 131.06)">7</text><path class="cls-8" d="M77.98 118.51h46.7v17h-46.7z"/><text class="cls-2" transform="translate(98.98 130.95)">7</text><path class="cls-25" d="M77.98 407.62h46.7v17h-46.7z"/><text class="cls-2" transform="translate(96.31 420.06)">23</text><path class="cls-25" d="M77.98 407.51h46.7v17h-46.7z"/><text class="cls-2" transform="translate(96.31 419.95)">23</text><path class="cls-30" d="M70.95.78h60.92V16.7H70.95z"/><text class="cls-31" transform="translate(74.64 9.44)">Dissatisﬁed</text><path class="cls-5" d="M77.98 67.7h46.7v17h-46.7z"/><text class="cls-2" transform="translate(98.64 80.14)">4</text><path class="cls-5" d="M77.98 67.59h46.7v17h-46.7z"/><text class="cls-2" transform="translate(98.64 80.03)">4</text><path class="cls-1" d="M0 16.62h13.5v17H0z"/><text class="cls-2" transform="translate(4.83 29.06)">1</text><path class="cls-3" d="M0 33.62h13.5v17H0z"/><text class="cls-2" transform="translate(4.18 46.06)">2</text><path class="cls-4" d="M0 50.62h13.5v17H0z"/><text class="cls-2" transform="translate(4.31 63.06)">3</text><path class="cls-5" d="M0 67.62h13.5v17H0z"/><text class="cls-2" transform="translate(4.06 80.06)">4</text><path class="cls-6" d="M0 84.62h13.5v17H0z"/><text class="cls-2" transform="translate(4.19 97.06)">5</text><path class="cls-7" d="M0 101.62h13.5v17H0z"/><text class="cls-2" transform="translate(4.1 114.06)">6</text><path class="cls-8" d="M0 118.62h13.5v17H0z"/><text class="cls-2" transform="translate(4.4 131.06)">7</text><path class="cls-9" d="M0 135.62h13.5v17H0z"/><text class="cls-2" transform="translate(4.06 148.06)">8</text><path class="cls-10" d="M0 152.62h13.5v17H0z"/><text class="cls-2" transform="translate(4.1 165.06)">9</text><path class="cls-11" d="M0 169.62h13.5v17H0z"/><text class="cls-2" transform="translate(1.95 182.06)">10</text><path class="cls-12" d="M0 186.62h13.5v17H0z"/><text class="cls-2" transform="translate(2.9 199.06)">11</text><path class="cls-13" d="M0 203.62h13.5v17H0z"/><text class="cls-2" transform="translate(2.25 216.06)">12</text><path class="cls-14" d="M0 220.62h13.5v17H0z"/><text class="cls-2" transform="translate(2.38 233.06)">13</text><path class="cls-15" d="M0 237.62h13.5v17H0z"/><text class="cls-2" transform="translate(2.13 250.06)">14</text><path class="cls-16" d="M0 254.62h13.5v17H0z"/><text class="cls-2" transform="translate(2.27 267.06)">15</text><path class="cls-17" d="M0 271.62h13.5v17H0z"/><text class="cls-2" transform="translate(2.17 284.06)">16</text><path class="cls-18" d="M0 288.62h13.5v17H0z"/><text class="cls-2" transform="translate(2.56 301.06)"><tspan class="cls-19">1</tspan> <tspan x="5.39" y="0">7</tspan></text><path class="cls-20" d="M0 305.62h13.5v17H0z"/><text class="cls-2" transform="translate(2.14 318.06)">18</text><path class="cls-21" d="M0 322.62h13.5v17H0z"/><text class="cls-2" transform="translate(2.17 335.06)">19</text><path class="cls-22" d="M0 339.62h13.5v17H0z"/><text class="cls-2" transform="translate(1.3 352.06)">20</text><path class="cls-23" d="M0 356.62h13.5v17H0z"/><text class="cls-2" transform="translate(2.25 369.06)">21</text><path class="cls-24" d="M0 373.62h13.5v17H0z"/><text class="cls-2" transform="translate(1.6 386.06)">22</text><path class="cls-25" d="M0 390.62h13.5v17H0z"/><text class="cls-2" transform="translate(1.73 403.06)">23</text><path class="cls-26" d="M0 407.62h13.5v17H0z"/><text class="cls-2" transform="translate(1.48 420.06)">24</text><path class="cls-27" d="M0 424.62h13.5v17H0z"/><text class="cls-2" transform="translate(1.62 437.06)">25</text><path class="cls-28" d="M0 441.62h13.5v17H0z"/><text class="cls-2" transform="translate(1.52 454.06)">26</text><path class="cls-29" d="M0 458.62h13.5v17H0z"/><text class="cls-2" transform="translate(1.82 471.06)">27</text><path class="cls-30" d="M0 475.62h13.5v17H0z"/><text class="cls-2" transform="translate(1.49 488.06)">28</text></g></g></svg>