<svg xmlns="http://www.w3.org/2000/svg" viewBox="0 0 124.68 492.71" fill="#fff"><defs><style>.cls-1{fill:#ff4f5e}.cls-2{font-size:10px;font-family:ArialMT,Arial}.cls-3{fill:#ff5564}.cls-4{fill:#ff5c6a}.cls-5{fill:#ff6875}.cls-6{fill:#ff6e7b}.cls-7{fill:#ff7581}.cls-8{fill:#ff7b86}.cls-9{fill:#ff818c}.cls-10{fill:#ff8892}.cls-11{fill:#ff8e98}.cls-12{fill:#ff949d}.cls-13{fill:#ff9ba3}.cls-14{fill:#ffa1a9}.cls-15{fill:#ffa7af}.cls-16{fill:#ffadb5}.cls-17{fill:#ffb4ba}.cls-18{fill:#ffbac0}.cls-19{letter-spacing:-.02em}.cls-20{fill:#ffc1c6}.cls-21{fill:#ffc7cb}.cls-22{fill:#ffcdd1}.cls-23{fill:#ffd3d7}.cls-24{fill:#ffdadd}.cls-25{fill:#ffe0e3}.cls-26{fill:#ffe6e8}.cls-27{fill:#ffecee}.cls-28{fill:#fff3f4}.cls-29{fill:#fff9fa}.cls-30{fill:#fff}.cls-31{font-size:11px;font-family:Arial-BoldMT,Arial;font-weight:700}text{fill:#000}</style></defs><path class="cls-1" d="M22.49 16.71h46.7v17h-46.7z"/><text class="cls-2" transform="translate(43.92 29.14)">1</text><path class="cls-3" d="M22.49 33.71h46.7v17h-46.7z"/><text class="cls-2" transform="translate(43.27 46.14)">2</text><path class="cls-4" d="M22.49 50.68h46.7v17h-46.7z"/><text class="cls-2" transform="translate(43.4 63.11)">3</text><path class="cls-5" d="M22.49 84.68h46.7v17h-46.7z"/><text class="cls-2" transform="translate(43.15 97.11)">4</text><path class="cls-6" d="M22.49 67.68h46.7v17h-46.7z"/><text class="cls-2" transform="translate(43.28 80.11)">5</text><path class="cls-7" d="M22.49 101.6h46.7v17h-46.7z"/><text class="cls-2" transform="translate(43.19 114.03)">6</text><path class="cls-8" d="M22.49 118.6h46.7v17h-46.7z"/><text class="cls-2" transform="translate(43.49 131.03)">7</text><path class="cls-9" d="M22.49 135.59h46.7v17h-46.7z"/><text class="cls-2" transform="translate(43.15 148.03)">8</text><path class="cls-10" d="M22.49 169.6h46.7v17h-46.7z"/><text class="cls-2" transform="translate(43.19 182.03)">9</text><path class="cls-11" d="M22.49 237.6h46.7v17h-46.7z"/><text class="cls-2" transform="translate(41.04 250.03)">10</text><path class="cls-12" d="M22.49 152.6h46.7v17h-46.7z"/><text class="cls-2" transform="translate(41.99 165.04)">11</text><path class="cls-13" d="M22.49 203.6h46.7v17h-46.7z"/><text class="cls-2" transform="translate(41.34 216.03)">12</text><path class="cls-14" d="M22.49 271.6h46.7v17h-46.7z"/><text class="cls-2" transform="translate(41.47 284.03)">13</text><path class="cls-15" d="M22.49 254.6h46.7v17h-46.7z"/><text class="cls-2" transform="translate(41.22 267.03)">14</text><path class="cls-16" d="M22.49 186.6h46.7v17h-46.7z"/><text class="cls-2" transform="translate(41.36 199.03)">15</text><path class="cls-17" d="M22.49 305.6h46.7v17h-46.7z"/><text class="cls-2" transform="translate(41.26 318.04)">16</text><path class="cls-18" d="M22.49 220.6h46.7v17h-46.7z"/><text class="cls-2" transform="translate(41.65 233.03)"><tspan class="cls-19">1</tspan> <tspan x="5.39" y="0">7</tspan></text><path class="cls-20" d="M22.49 288.59h46.7v17h-46.7z"/><text class="cls-2" transform="translate(41.23 301.03)">18</text><path class="cls-21" d="M22.49 322.6h46.7v17h-46.7z"/><text class="cls-2" transform="translate(41.26 335.03)">19</text><path class="cls-22" d="M22.49 390.6h46.7v17h-46.7z"/><text class="cls-2" transform="translate(40.39 403.03)">20</text><path class="cls-23" d="M22.49 373.6h46.7v17h-46.7z"/><text class="cls-2" transform="translate(41.34 386.03)">21</text><path class="cls-24" d="M22.49 356.6h46.7v17h-46.7z"/><text class="cls-2" transform="translate(40.69 369.03)">22</text><path class="cls-25" d="M22.49 424.6h46.7v17h-46.7z"/><text class="cls-2" transform="translate(40.82 437.03)">23</text><path class="cls-26" d="M22.49 339.6h46.7v17h-46.7z"/><text class="cls-2" transform="translate(40.57 352.03)">24</text><path class="cls-27" d="M22.49 441.59h46.7v17h-46.7z"/><text class="cls-2" transform="translate(40.71 454.03)">25</text><path class="cls-28" d="M22.49 407.6h46.7v17h-46.7z"/><text class="cls-2" transform="translate(40.61 420.03)">26</text><path class="cls-29" d="M22.49 458.6h46.7v17h-46.7z"/><text class="cls-2" transform="translate(40.91 471.04)">27</text><path class="cls-30" d="M22.49 475.6h46.7v17h-46.7z"/><text class="cls-2" transform="translate(40.58 488.03)">28</text><text class="cls-31" transform="translate(18.71 9.52)">两年或更少</text><path class="cls-9" d="M77.98 84.68h46.7v17h-46.7z"/><text class="cls-2" transform="translate(98.64 97.11)">8</text><path class="cls-16" d="M77.98 271.6h46.7v17h-46.7z"/><text class="cls-2" transform="translate(96.85 284.03)">15</text><path class="cls-17" d="M77.98 288.59h46.7v17h-46.7z"/><text class="cls-2" transform="translate(96.75 301.03)">16</text><path class="cls-23" d="M77.98 407.6h46.7v17h-46.7z"/><text class="cls-2" transform="translate(96.83 420.03)">21</text><path class="cls-10" d="M77.98 152.6h46.7v17h-46.7z"/><text class="cls-2" transform="translate(98.68 165.04)">9</text><path class="cls-15" d="M77.98 339.6h46.7v17h-46.7z"/><text class="cls-2" transform="translate(96.71 352.03)">14</text><path class="cls-18" d="M77.98 254.6h46.7v17h-46.7z"/><text class="cls-2" transform="translate(97.14 267.03)"><tspan class="cls-19">1</tspan> <tspan x="5.39" y="0">7</tspan></text><path class="cls-21" d="M77.98 373.6h46.7v17h-46.7z"/><text class="cls-2" transform="translate(96.75 386.03)">19</text><path class="cls-22" d="M77.98 322.6h46.7v17h-46.7z"/><text class="cls-2" transform="translate(95.88 335.03)">20</text><path class="cls-24" d="M77.98 356.6h46.7v17h-46.7z"/><text class="cls-2" transform="translate(96.18 369.03)">22</text><path class="cls-26" d="M77.98 390.6h46.7v17h-46.7z"/><text class="cls-2" transform="translate(96.06 403.03)">24</text><path class="cls-27" d="M77.98 424.6h46.7v17h-46.7z"/><text class="cls-2" transform="translate(96.2 437.03)">25</text><path class="cls-28" d="M77.98 441.6h46.7v17h-46.7z"/><text class="cls-2" transform="translate(96.1 454.03)">26</text><path class="cls-29" d="M77.98 458.6h46.7v17h-46.7z"/><text class="cls-2" transform="translate(96.4 471.04)">27</text><path class="cls-30" d="M77.98 475.6h46.7v17h-46.7z"/><text class="cls-2" transform="translate(96.07 488.03)">28</text><path class="cls-12" d="M77.98 220.6h46.7v17h-46.7z"/><text class="cls-2" transform="translate(97.48 233.03)">11</text><path class="cls-11" d="M77.98 186.6h46.7v17h-46.7z"/><text class="cls-2" transform="translate(96.53 199.03)">10</text><path class="cls-14" d="M77.98 169.6h46.7v17h-46.7z"/><text class="cls-2" transform="translate(96.96 182.03)">13</text><path class="cls-13" d="M77.98 203.6h46.7v17h-46.7z"/><text class="cls-2" transform="translate(96.83 216.03)">12</text><path class="cls-20" d="M77.98 237.6h46.7v17h-46.7z"/><text class="cls-2" transform="translate(96.72 250.03)">18</text><path class="cls-3" d="M77.98 33.71h46.7v17h-46.7z"/><text class="cls-2" transform="translate(98.76 46.14)">2</text><path class="cls-4" d="M77.98 67.68h46.7v17h-46.7z"/><text class="cls-2" transform="translate(98.89 80.11)">3</text><path class="cls-7" d="M77.98 101.6h46.7v17h-46.7z"/><text class="cls-2" transform="translate(98.68 114.03)">6</text><path class="cls-1" d="M77.98 16.71h46.7v17h-46.7z"/><text class="cls-2" transform="translate(99.41 29.14)">1</text><path class="cls-6" d="M77.98 135.59h46.7v17h-46.7z"/><text class="cls-2" transform="translate(98.77 148.03)">5</text><path class="cls-8" d="M77.98 118.6h46.7v17h-46.7z"/><text class="cls-2" transform="translate(98.98 131.03)">7</text><path class="cls-25" d="M77.98 305.6h46.7v17h-46.7z"/><text class="cls-2" transform="translate(96.31 318.04)">23</text><path class="cls-30" d="M77.98.78h46.7V16.7h-46.7z"/><text class="cls-31" transform="translate(73.89 9.44)">十年或更多</text><path class="cls-5" d="M77.98 50.68h46.7v17h-46.7z"/><text class="cls-2" transform="translate(98.64 63.11)">4</text><path class="cls-1" d="M0 16.71h13.5v17H0z"/><text class="cls-2" transform="translate(4.83 29.14)">1</text><path class="cls-3" d="M0 33.71h13.5v17H0z"/><text class="cls-2" transform="translate(4.18 46.14)">2</text><path class="cls-4" d="M0 50.71h13.5v17H0z"/><text class="cls-2" transform="translate(4.31 63.14)">3</text><path class="cls-5" d="M0 67.71h13.5v17H0z"/><text class="cls-2" transform="translate(4.06 80.14)">4</text><path class="cls-6" d="M0 84.71h13.5v17H0z"/><text class="cls-2" transform="translate(4.19 97.14)">5</text><path class="cls-7" d="M0 101.71h13.5v17H0z"/><text class="cls-2" transform="translate(4.1 114.14)">6</text><path class="cls-8" d="M0 118.71h13.5v17H0z"/><text class="cls-2" transform="translate(4.4 131.14)">7</text><path class="cls-9" d="M0 135.71h13.5v17H0z"/><text class="cls-2" transform="translate(4.06 148.14)">8</text><path class="cls-10" d="M0 152.71h13.5v17H0z"/><text class="cls-2" transform="translate(4.1 165.14)">9</text><path class="cls-11" d="M0 169.71h13.5v17H0z"/><text class="cls-2" transform="translate(1.95 182.14)">10</text><path class="cls-12" d="M0 186.71h13.5v17H0z"/><text class="cls-2" transform="translate(2.9 199.14)">11</text><path class="cls-13" d="M0 203.71h13.5v17H0z"/><text class="cls-2" transform="translate(2.25 216.14)">12</text><path class="cls-14" d="M0 220.71h13.5v17H0z"/><text class="cls-2" transform="translate(2.38 233.14)">13</text><path class="cls-15" d="M0 237.71h13.5v17H0z"/><text class="cls-2" transform="translate(2.13 250.14)">14</text><path class="cls-16" d="M0 254.71h13.5v17H0z"/><text class="cls-2" transform="translate(2.27 267.14)">15</text><path class="cls-17" d="M0 271.71h13.5v17H0z"/><text class="cls-2" transform="translate(2.17 284.14)">16</text><path class="cls-18" d="M0 288.71h13.5v17H0z"/><text class="cls-2" transform="translate(2.56 301.14)"><tspan class="cls-19">1</tspan> <tspan x="5.39" y="0">7</tspan></text><path class="cls-20" d="M0 305.71h13.5v17H0z"/><text class="cls-2" transform="translate(2.14 318.14)">18</text><path class="cls-21" d="M0 322.71h13.5v17H0z"/><text class="cls-2" transform="translate(2.17 335.14)">19</text><path class="cls-22" d="M0 339.71h13.5v17H0z"/><text class="cls-2" transform="translate(1.3 352.14)">20</text><path class="cls-23" d="M0 356.71h13.5v17H0z"/><text class="cls-2" transform="translate(2.25 369.14)">21</text><path class="cls-24" d="M0 373.71h13.5v17H0z"/><text class="cls-2" transform="translate(1.6 386.14)">22</text><path class="cls-25" d="M0 390.71h13.5v17H0z"/><text class="cls-2" transform="translate(1.73 403.14)">23</text><path class="cls-26" d="M0 407.71h13.5v17H0z"/><text class="cls-2" transform="translate(1.48 420.14)">24</text><path class="cls-27" d="M0 424.71h13.5v17H0z"/><text class="cls-2" transform="translate(1.62 437.14)">25</text><path class="cls-28" d="M0 441.71h13.5v17H0z"/><text class="cls-2" transform="translate(1.52 454.14)">26</text><path class="cls-29" d="M0 458.71h13.5v17H0z"/><text class="cls-2" transform="translate(1.82 471.14)">27</text><path class="cls-30" d="M0 475.71h13.5v17H0z"/><text class="cls-2" transform="translate(1.49 488.14)">28</text></svg>