<svg xmlns="http://www.w3.org/2000/svg" viewBox="0 0 131.33 493.47"><defs><style>.cls-1{fill:#ff4f5e}.cls-2{font-size:10px;font-family:ArialMT,Arial}.cls-3{fill:#ff5564}.cls-4{fill:#ff5c6a}.cls-5{fill:#ff6875}.cls-6{fill:#ff6e7b}.cls-7{fill:#ff7581}.cls-8{fill:#ff7b86}.cls-9{fill:#ff818c}.cls-10{fill:#ff8892}.cls-11{fill:#ff8e98}.cls-12{fill:#ff949d}.cls-13{fill:#ff9ba3}.cls-14{fill:#ffa1a9}.cls-15{fill:#ffa7af}.cls-16{fill:#ffadb5}.cls-17{fill:#ffb4ba}.cls-18{fill:#ffbac0}.cls-19{letter-spacing:-.02em}.cls-20{fill:#ffc1c6}.cls-21{fill:#ffc7cb}.cls-22{fill:#ffcdd1}.cls-23{fill:#ffd3d7}.cls-24{fill:#ffdadd}.cls-25{fill:#ffe0e3}.cls-26{fill:#ffe6e8}.cls-27{fill:#ffecee}.cls-28{fill:#fff3f4}.cls-29{fill:#fff9fa}.cls-30{fill:#fff}</style></defs><g id="Layer_2" data-name="Layer 2"><g id="Layer_1-2" data-name="Layer 1"><path class="cls-1" d="M22.6 17.48h46.7v17H22.6z"/><text class="cls-2" transform="translate(44.02 29.91)">1</text><path class="cls-3" d="M22.6 34.48h46.7v17H22.6z"/><text class="cls-2" transform="translate(43.37 46.91)">2</text><path class="cls-4" d="M22.6 68.45h46.7v17H22.6z"/><text class="cls-2" transform="translate(43.5 80.88)">3</text><path class="cls-5" d="M22.6 51.45h46.7v17H22.6z"/><text class="cls-2" transform="translate(43.25 63.88)">4</text><path class="cls-6" d="M22.6 85.45h46.7v17H22.6z"/><text class="cls-2" transform="translate(43.39 97.88)">5</text><path class="cls-7" d="M22.6 119.36h46.7v17H22.6z"/><text class="cls-2" transform="translate(43.29 131.8)">6</text><path class="cls-8" d="M22.6 102.37h46.7v17H22.6z"/><text class="cls-2" transform="translate(43.59 114.8)">7</text><path class="cls-9" d="M22.6 136.36h46.7v17H22.6z"/><text class="cls-2" transform="translate(43.26 148.8)">8</text><path class="cls-10" d="M22.6 170.37h46.7v17H22.6z"/><text class="cls-2" transform="translate(43.29 182.8)">9</text><path class="cls-11" d="M22.6 204.37h46.7v17H22.6z"/><text class="cls-2" transform="translate(41.14 216.8)">10</text><path class="cls-12" d="M22.6 153.37h46.7v17H22.6z"/><text class="cls-2" transform="translate(42.1 165.8)">11</text><path class="cls-13" d="M22.6 187.37h46.7v17H22.6z"/><text class="cls-2" transform="translate(41.45 199.8)">12</text><path class="cls-14" d="M22.6 221.37h46.7v17H22.6z"/><text class="cls-2" transform="translate(41.58 233.8)">13</text><path class="cls-15" d="M22.6 238.37h46.7v17H22.6z"/><text class="cls-2" transform="translate(41.33 250.8)">14</text><path class="cls-16" d="M22.6 255.37h46.7v17H22.6z"/><text class="cls-2" transform="translate(41.46 267.8)">15</text><path class="cls-17" d="M22.6 306.37h46.7v17H22.6z"/><text class="cls-2" transform="translate(41.37 318.8)">16</text><path class="cls-18" d="M22.6 272.36h46.7v17H22.6z"/><text class="cls-2" transform="translate(41.75 284.8)"><tspan class="cls-19">1</tspan> <tspan x="5.39" y="0">7</tspan></text><path class="cls-20" d="M22.6 289.36h46.7v17H22.6z"/><text class="cls-2" transform="translate(41.33 301.8)">18</text><path class="cls-21" d="M22.6 391.37h46.7v17H22.6z"/><text class="cls-2" transform="translate(41.37 403.8)">19</text><path class="cls-22" d="M22.6 357.37h46.7v17H22.6z"/><text class="cls-2" transform="translate(40.49 369.8)">20</text><path class="cls-23" d="M22.6 374.37h46.7v17H22.6z"/><text class="cls-2" transform="translate(41.45 386.8)">21</text><path class="cls-24" d="M22.6 340.37h46.7v17H22.6z"/><text class="cls-2" transform="translate(40.8 352.8)">22</text><path class="cls-25" d="M22.6 323.37h46.7v17H22.6z"/><text class="cls-2" transform="translate(40.93 335.8)">23</text><path class="cls-26" d="M22.6 425.36h46.7v17H22.6z"/><text class="cls-2" transform="translate(40.68 437.8)">24</text><path class="cls-27" d="M22.6 408.37h46.7v17H22.6z"/><text class="cls-2" transform="translate(40.81 420.8)">25</text><path class="cls-28" d="M22.6 442.36h46.7v17H22.6z"/><text class="cls-2" transform="translate(40.72 454.8)">26</text><path class="cls-29" d="M22.6 459.37h46.7v17H22.6z"/><text class="cls-2" transform="translate(41.02 471.8)">27</text><path class="cls-30" d="M22.6 476.37h46.7v17H22.6z"/><text class="cls-2" transform="translate(40.68 488.8)">28</text><text transform="translate(40.78 9.44)" letter-spacing="-.02em" font-size="11" font-family="Arial-BoldMT,Arial" font-weight="700">JS</text><path class="cls-9" d="M78.11 272.36h46.7v17h-46.7z"/><text class="cls-2" transform="translate(98.77 284.8)">8</text><path class="cls-16" d="M78.11 221.37h46.7v17h-46.7z"/><text class="cls-2" transform="translate(96.98 233.8)">15</text><path class="cls-17" d="M78.11 442.36h46.7v17h-46.7z"/><text class="cls-2" transform="translate(96.88 454.8)">16</text><path class="cls-23" d="M78.11 357.37h46.7v17h-46.7z"/><text class="cls-2" transform="translate(96.96 369.8)">21</text><path class="cls-10" d="M78.11 187.37h46.7v17h-46.7z"/><text class="cls-2" transform="translate(98.81 199.8)">9</text><path class="cls-15" d="M78.11 238.37h46.7v17h-46.7z"/><text class="cls-2" transform="translate(96.84 250.8)">14</text><path class="cls-18" d="M78.11 425.37h46.7v17h-46.7z"/><text class="cls-2" transform="translate(97.27 437.8)"><tspan class="cls-19">1</tspan> <tspan x="5.39" y="0">7</tspan></text><path class="cls-21" d="M78.11 255.37h46.7v17h-46.7z"/><text class="cls-2" transform="translate(96.88 267.8)">19</text><path class="cls-22" d="M78.11 391.37h46.7v17h-46.7z"/><text class="cls-2" transform="translate(96.01 403.8)">20</text><path class="cls-24" d="M78.11 306.37h46.7v17h-46.7z"/><text class="cls-2" transform="translate(96.31 318.8)">22</text><path class="cls-26" d="M78.11 340.37h46.7v17h-46.7z"/><text class="cls-2" transform="translate(96.19 352.8)">24</text><path class="cls-27" d="M78.11 408.37h46.7v17h-46.7z"/><text class="cls-2" transform="translate(96.33 420.8)">25</text><path class="cls-28" d="M78.11 323.37h46.7v17h-46.7z"/><text class="cls-2" transform="translate(96.23 335.8)">26</text><path class="cls-29" d="M78.11 459.37h46.7v17h-46.7z"/><text class="cls-2" transform="translate(96.53 471.8)">27</text><path class="cls-30" d="M78.11 476.37h46.7v17h-46.7z"/><text class="cls-2" transform="translate(96.2 488.8)">28</text><path class="cls-12" d="M78.11 153.37h46.7v17h-46.7z"/><text class="cls-2" transform="translate(97.61 165.8)">11</text><path class="cls-11" d="M78.11 68.45h46.7v17h-46.7z"/><text class="cls-2" transform="translate(96.66 80.88)">10</text><path class="cls-14" d="M78.11 85.45h46.7v17h-46.7z"/><text class="cls-2" transform="translate(97.09 97.88)">13</text><path class="cls-13" d="M78.11 204.37h46.7v17h-46.7z"/><text class="cls-2" transform="translate(96.96 216.8)">12</text><path class="cls-20" d="M78.11 374.37h46.7v17h-46.7z"/><text class="cls-2" transform="translate(96.85 386.8)">18</text><path class="cls-3" d="M78.11 136.36h46.7v17h-46.7z"/><text class="cls-2" transform="translate(98.89 148.8)">2</text><path class="cls-4" d="M78.11 51.45h46.7v17h-46.7z"/><text class="cls-2" transform="translate(99.02 63.88)">3</text><path class="cls-7" d="M78.11 119.36h46.7v17h-46.7z"/><text class="cls-2" transform="translate(98.81 131.8)">6</text><path class="cls-1" d="M78.11 17.56h46.7v17h-46.7z"/><text class="cls-2" transform="translate(99.54 29.99)">1</text><path class="cls-6" d="M78.11 34.48h46.7v17h-46.7z"/><text class="cls-2" transform="translate(98.9 46.91)">5</text><path class="cls-8" d="M78.11 170.37h46.7v17h-46.7z"/><text class="cls-2" transform="translate(99.11 182.8)">7</text><path class="cls-25" d="M78.11 289.36h46.7v17h-46.7z"/><text class="cls-2" transform="translate(96.44 301.8)">23</text><path class="cls-30" d="M75.11.83h52.71v8.66H75.11z"/><text transform="translate(75.11 9.49)" font-size="11" font-family="Arial-BoldMT,Arial" font-weight="700">CSS/HTML</text><path class="cls-5" d="M78.11 102.37h46.7v17h-46.7z"/><text class="cls-2" transform="translate(98.77 114.8)">4</text><path class="cls-1" d="M0 17.47h13.5v17H0z"/><text class="cls-2" transform="translate(4.83 29.91)">1</text><path class="cls-3" d="M0 34.47h13.5v17H0z"/><text class="cls-2" transform="translate(4.18 46.91)">2</text><path class="cls-4" d="M0 51.47h13.5v17H0z"/><text class="cls-2" transform="translate(4.31 63.91)">3</text><path class="cls-5" d="M0 68.47h13.5v17H0z"/><text class="cls-2" transform="translate(4.06 80.91)">4</text><path class="cls-6" d="M0 85.47h13.5v17H0z"/><text class="cls-2" transform="translate(4.19 97.91)">5</text><path class="cls-7" d="M0 102.47h13.5v17H0z"/><text class="cls-2" transform="translate(4.1 114.91)">6</text><path class="cls-8" d="M0 119.47h13.5v17H0z"/><text class="cls-2" transform="translate(4.4 131.91)">7</text><path class="cls-9" d="M0 136.47h13.5v17H0z"/><text class="cls-2" transform="translate(4.06 148.91)">8</text><path class="cls-10" d="M0 153.47h13.5v17H0z"/><text class="cls-2" transform="translate(4.1 165.91)">9</text><path class="cls-11" d="M0 170.47h13.5v17H0z"/><text class="cls-2" transform="translate(1.95 182.91)">10</text><path class="cls-12" d="M0 187.47h13.5v17H0z"/><text class="cls-2" transform="translate(2.9 199.91)">11</text><path class="cls-13" d="M0 204.47h13.5v17H0z"/><text class="cls-2" transform="translate(2.25 216.91)">12</text><path class="cls-14" d="M0 221.47h13.5v17H0z"/><text class="cls-2" transform="translate(2.38 233.91)">13</text><path class="cls-15" d="M0 238.47h13.5v17H0z"/><text class="cls-2" transform="translate(2.13 250.91)">14</text><path class="cls-16" d="M0 255.47h13.5v17H0z"/><text class="cls-2" transform="translate(2.27 267.91)">15</text><path class="cls-17" d="M0 272.47h13.5v17H0z"/><text class="cls-2" transform="translate(2.17 284.91)">16</text><path class="cls-18" d="M0 289.47h13.5v17H0z"/><text class="cls-2" transform="translate(2.56 301.91)"><tspan class="cls-19">1</tspan> <tspan x="5.39" y="0">7</tspan></text><path class="cls-20" d="M0 306.47h13.5v17H0z"/><text class="cls-2" transform="translate(2.14 318.91)">18</text><path class="cls-21" d="M0 323.47h13.5v17H0z"/><text class="cls-2" transform="translate(2.17 335.91)">19</text><path class="cls-22" d="M0 340.47h13.5v17H0z"/><text class="cls-2" transform="translate(1.3 352.91)">20</text><path class="cls-23" d="M0 357.47h13.5v17H0z"/><text class="cls-2" transform="translate(2.25 369.91)">21</text><path class="cls-24" d="M0 374.47h13.5v17H0z"/><text class="cls-2" transform="translate(1.6 386.91)">22</text><path class="cls-25" d="M0 391.47h13.5v17H0z"/><text class="cls-2" transform="translate(1.73 403.91)">23</text><path class="cls-26" d="M0 408.47h13.5v17H0z"/><text class="cls-2" transform="translate(1.48 420.91)">24</text><path class="cls-27" d="M0 425.47h13.5v17H0z"/><text class="cls-2" transform="translate(1.62 437.91)">25</text><path class="cls-28" d="M0 442.47h13.5v17H0z"/><text class="cls-2" transform="translate(1.52 454.91)">26</text><path class="cls-29" d="M0 459.47h13.5v17H0z"/><text class="cls-2" transform="translate(1.82 471.91)">27</text><path class="cls-30" d="M0 476.47h13.5v17H0z"/><text class="cls-2" transform="translate(1.49 488.91)">28</text></g></g></svg>