<svg xmlns="http://www.w3.org/2000/svg" viewBox="0 0 435.58 316.46"><defs><style>.cls-10,.cls-6{font-size:10px;font-family:ArialMT,Arial}.cls-7{letter-spacing:-.01em}.cls-8{letter-spacing:-.02em}.cls-9{letter-spacing:-.01em}.cls-10{fill:#959595}.cls-13{letter-spacing:-.03em}.cls-15{fill:none;stroke:#000}</style></defs><g id="Layer_2" data-name="Layer 2"><g id="Layer_1-2" data-name="Layer 1"><path d="M235.75 161.86V30q-4.16 0-8.31.28z" fill="#fff44f"/><path d="M235.75 161.86l-8.31-131.58a132.34 132.34 0 00-24.1 3.72 128 128 0 00-23.73 8.54z" fill="#ffa356"/><path d="M235.75 161.86l-56.14-119.3a131.74 131.74 0 00-47.05 37.3 134.24 134.24 0 00-15.79 25.3 131.15 131.15 0 00-8.77 89.48z" fill="#f96282"/><path d="M197.38 287.68a134.87 134.87 0 0033.71 5.67 130.72 130.72 0 0033.52-3 131.86 131.86 0 0059.79-30.8 127.81 127.81 0 0022.71-27 131 131 0 0020.41-65.84 133.81 133.81 0 00-3.14-33.61 131.29 131.29 0 00-30.93-59.84 128.86 128.86 0 00-27.06-22.76l-70.64 111.36-127.43 32.69a130.33 130.33 0 008.08 22.81 127.07 127.07 0 0012.33 21 135.74 135.74 0 0016.34 18.7 129.15 129.15 0 0020.23 15.74 127.69 127.69 0 0032.08 14.83" fill="#9f4e9d"/><path d="M235.76 161.86L306.4 50.5a133.17 133.17 0 00-33.25-15.14A129.21 129.21 0 00235.76 30z" fill="#00458b"/><text class="cls-6" transform="translate(286.51 8.58)">Strong<tspan class="cls-7" x="29.46" y="0">l</tspan><tspan class="cls-8" x="31.55" y="0">y</tspan><tspan x="36.32" y="0"> Disagree</tspan></text><text class="cls-6" transform="translate(405.76 295.34)"><tspan class="cls-9">A</tspan> <tspan x="6.53" y="0">gree</tspan></text><text class="cls-10" transform="translate(413.85 313.21)">62%</text><text class="cls-10" transform="translate(421.13 41.04)">9%</text><text class="cls-10" transform="translate(348.68 25.5)">1%</text><text class="cls-10" transform="translate(66.66 31.38)">6%</text><text class="cls-10" transform="translate(0 76.57)">22%</text><text class="cls-6" transform="translate(0 59.18)"><tspan letter-spacing="-.02em">N</tspan> <tspan x="7.01" y="0">eithe</tspan> <tspan x="28.7" y="0" letter-spacing="-.02em">r</tspan> <tspan class="cls-13" x="31.88" y="0"> </tspan> <tspan class="cls-9" x="34.36" y="0">A</tspan> <tspan x="40.89" y="0">gree o</tspan> <tspan x="69.25" y="0" letter-spacing="-.02em">r</tspan> <tspan x="72.42" y="0"> Disagree</tspan></text><text class="cls-6" transform="translate(66.66 13.29)">Disagree</text><text class="cls-6" transform="translate(368.94 26.22)">Strong<tspan class="cls-7" x="29.46" y="0">l</tspan><tspan class="cls-8" x="31.55" y="0">y</tspan><tspan class="cls-13" x="36.32" y="0"> </tspan><tspan class="cls-9" x="38.81" y="0">A</tspan><tspan x="45.34" y="0">gree</tspan></text><path class="cls-15" d="M363.9 12.77H256.04M323.15 300.49l-11.46-28.07M325.79 30.96l-25.65 16.17M430.58 300.18H322.72M433.41 31.03H325.55M256.25 12.67l-25.64 16.17M173.63 18.1l25.64 16.17M66.07 18.17h107.86M108.11 63.7l25.64 16.17M.56 63.77h107.85"/></g></g></svg>