<svg xmlns="http://www.w3.org/2000/svg" viewBox="0 0 359.32 326.19" fill="#fff"><defs><style>.cls-1{fill:none;stroke:#000;stroke-width:.78px}.cls-2,.cls-3{font-size:10px;font-family:ArialMT,Arial}.cls-3{fill:#959595}.cls-4{letter-spacing:-.01em}text{fill:#000}</style></defs><path class="cls-1" d="M156.35 75.3L141.6 51.93"/><text class="cls-2" transform="translate(334.83 305.08)">满意</text><text class="cls-3" transform="translate(330.97 322.95)">59.8%</text><text class="cls-3" transform="translate(313 26.56)">2.2%</text><text class="cls-3" transform="translate(81 31.5)"><tspan class="cls-4">6</tspan> <tspan x="5.43" y="0">.8%</tspan></text><text class="cls-3" transform="translate(33.48 255.98)">1<tspan class="cls-4" x="5.56" y="0">6</tspan><tspan x="10.99" y="0">.3%</tspan></text><text class="cls-3" transform="translate(0 63.81)">14.9%</text><text class="cls-2" transform="translate(81 13.41)">不满意</text><text class="cls-2" transform="translate(33.48 237.89)">非常满意</text><text class="cls-2" transform="translate(0 47.17)">中立</text><text class="cls-2" transform="translate(295.21 8.58)">非常不满</text><path d="M229.51 157.32l.18-127.24c-2.67 0-5.35.09-8 .27s-5.38.41-8.11.71z" fill="#fff44f"/><path d="M213.56 31.06a127.78 127.78 0 00-26.78 6.33 123 123 0 00-25.43 12.47l68.16 107.46z" fill="#ffa356"/><path d="M229.51 157.32L161.26 50a126.93 126.93 0 00-22.82 18.53A127.15 127.15 0 00108.15 119a125 125 0 00-5.62 30.29z" fill="#f96282"/><path d="M229.51 157.32l-127-8A127.48 127.48 0 00114 210.56a129 129 0 0016.85 27.05 124.81 124.81 0 0023.92 22.63z" fill="#9f4e9d"/><path d="M263.33 279.67a127.84 127.84 0 0056.14-32.57 125.44 125.44 0 0019.91-25.67 127.39 127.39 0 0012.84-30.34 128 128 0 000-67.58 127.46 127.46 0 00-88.89-88.89 125 125 0 00-33.81-4.54v127.24L154.84 260a127.75 127.75 0 0034.67 17.87 128.53 128.53 0 0073.82 1.83" fill="#00458b"/><path d="M249.71 288.62a3 3 0 10-3-3 3 3 0 003 3M220.78 30.08a3 3 0 10-3-3 3 3 0 003 3"/><path class="cls-1" d="M242.17 13.63l-23.36 14.76m31.43 258.11l14.75 23.37m90.05-.19h-90.38M332.1 13.69h-90.38m-70.38 5.28l23.36 14.76m-70.95 209.13l23.37 14.76M81.22 19.03h90.38M33.64 242.92h90.38M1.4 52.09h140.55"/></svg>