<svg xmlns="http://www.w3.org/2000/svg" viewBox="0 0 354.24 108"><defs><style>.cls-1{fill:#f2f2f2}.cls-2{font-size:10px;font-family:ArialMT,Arial}.cls-5{fill:#fff}.cls-7{fill:#00458b}.cls-8{fill:none;stroke:#fff}</style></defs><path class="cls-1" d="M0 0h354.24v27H0z"/><text class="cls-2" transform="translate(4.5 17.44)">总计作答</text><path class="cls-5" d="M0 27h354.24v27H0z"/><text class="cls-2" transform="translate(4.5 44.44)">部分作答</text><path class="cls-1" d="M0 54h354.24v27H0z"/><text class="cls-2" transform="translate(4.5 71.44)">完整作答</text><path class="cls-5" d="M0 81h354.24v27H0z"/><text class="cls-2" transform="translate(4.5 98.44)">不优秀的作答</text><path class="cls-7" d="M183.54.5h78.76v26h-78.76z"/><path class="cls-8" d="M183.54.5h78.76v26h-78.76z"/><path class="cls-7" d="M183.54 54.5h28.81v26h-28.81z"/><path class="cls-8" d="M183.54 54.5h28.81v26h-28.81z"/><path class="cls-7" d="M183.54 81.5h2.92v26h-2.92z"/><path class="cls-8" d="M183.54 81.5h2.92v26h-2.92z"/><text class="cls-2" transform="translate(236.88 44.07)">43,904</text><text class="cls-2" transform="translate(221.04 71.4)">28,474 <tspan font-style="italic">(37.4%)</tspan></text><text class="cls-2" transform="translate(270.72 17.03)">76,188</text><path class="cls-7" d="M183.54 27.5h44.96v26h-44.96z"/><path class="cls-8" d="M183.54 27.5h44.96v26h-44.96z"/><text class="cls-2" transform="translate(195.12 98.48)">3739</text></svg>